# File produced by Open Asset Import Library (http://www.assimp.sf.net)
# (assimp v6.0.3476479118)

mtllib result.mtl

# 363 vertex positions
v -542.726746 467.178741 709.240112
v -1011.51569 319.716034 642.108765
v -499.943115 37.7281113 544.885315
v -954.432129 1594.29041 -369.41507
v -1074.99023 1451.74268 -565.735291
v -1294.46814 1392.29639 -422.728119
v -1019.67737 96.0767822 -569.65625
v -444.000519 -11.8565273 -554.0448
v -1021.02716 3.79484868 -74.2224731
v 1182.17017 1253.27185 559.043457
v 1252.05139 1278.25208 322.66983
v 1234.68079 1345.82776 263.576416
v -522.847473 1439.81995 -652.637695
v -241.294342 1268.09778 -708.008118
v -693.117615 1299.98657 -753.307556
v -1173.21533 48.7925262 431.971161
v -1241.45996 248.743057 515.555176
v -1351.91272 184.651169 374.44101
v -1215.19861 1327.20435 331.604065
v -1051.37573 1312.74316 439.04306
v -1078.87817 1467.49854 213.107086
v -1146.11841 200.611298 -651.150208
v -1265.89478 183.019867 -523.941772
v -752.042053 1551.55322 -551.739502
v -492.196136 1510.33044 -568.59906
v 198.972946 1533.82507 307.995636
v 145.174057 1490.0188 311.003143
v 180.22731 1461.89929 399.276764
v 298.194977 1139.76758 518.019714
v 375.96225 1346.89709 526.867798
v 296.458282 1403.80054 469.683472
v 1041.1499 599.235901 -242.177338
v 988.502502 565.049561 52.3638954
v 986.884888 259.767181 -252.629562
v 748.454773 1548.67957 -234.670471
v 866.472046 1641.4812 -234.674591
v 818.452759 1484.59595 -280.094055
v 447.946411 1106.38208 -434.134918
v 393.228973 1310.15601 -335.030731
v 635.986023 1279.13306 -303.191254
v 98.540329 177.795822 -722.221863
v 57.3109093 22.0158176 -696.132935
v -353.271393 222.675446 -751.900452
v -257.228149 -9.91782665 -556.128296
v 57.3109093 22.0158176 -696.132935
v 83.7431107 -37.4698334 -544.904602
v 163.059677 1255.25171 -617.07782
v 124.039688 1430.50671 -395.630707
v -521.509949 1580.02551 -458.248199
v 71.2657928 168.556549 591.442688
v -225.120636 23.4842205 532.568481
v 99.3710022 -42.1638794 543.394958
v 3.92205238 1120.80017 518.943726
v -358.94693 1264.2533 414.346954
v 43.1528168 1034.08716 577.39502
v 3.6995039 1404.94397 377.526398
v 20.6066036 1288.60254 461.864441
v 220.396072 1360.96582 525.61084
v -1469.52295 763.737122 387.896942
v -1272.42188 594.643188 543.748352
v -1227.39893 918.997498 567.482178
v -1454.78308 450.159912 375.478241
v 1041.1499 599.235901 -242.177338
v 978.284058 713.648438 -475.066833
v 1041.47144 808.481995 -234.319153
v -104.346939 860.457764 725.802368
v -81.1157227 715.407349 769.037048
v 150.095673 911.649048 650.808044
v -460.053101 773.964417 765.235535
v 783.619446 1204.65295 732.532532
v 803.490662 1064.30164 705.927979
v 960.769836 996.592285 634.087769
v -1265.08679 1387.02283 133.388535
v -359.093323 1458.43372 175.321198
v -841.392639 1490.16003 210.559509
v -357.08905 1367.55981 295.101532
v 538.824097 -41.0054588 499.175842
v 96.3835907 -76.7045288 409.325653
v 68.2934647 -41.5831184 -69.4721603
v -201.225616 -52.224762 399.690674
v -257.228149 -9.91782665 -556.128296
v -602.891785 -30.5578766 -38.7136421
v -679.523376 1637.26953 -270.191315
v -756.167419 1625.77893 -114.912369
v -358.324371 1564.68945 -34.1937599
v -311.178528 1588.72437 -227.393906
v -1131.20361 1177.73999 497.218079
v 941.736023 300.322266 144.137115
v 915.034973 88.8401947 6.43975401
v 934.225464 86.754715 -98.4101181
v -880.226501 1284.24719 483.525238
v -924.653442 45.0053291 502.267975
v 132.700272 1468.5708 -0.780067801
v 1.24678719 1481.42566 -18.3785114
v 120.18428 1498.69531 131.268524
v 145.026749 470.958527 -668.990845
v 319.127319 1089.7865 573.90509
v 453.859985 1070.23291 493.343262
v 426.172577 1127.99182 490.717041
v 393.994965 1170.52759 554.589355
v 454.687317 1118.83777 635.408569
v 423.207458 1195.8656 671.286194
v -364.041992 915.325989 -790.623291
v -401.014618 1127.66333 -780.660156
v 154.007507 1072.74976 -692.767822
v 307.54776 817.21759 635.8255
v -1678.84985 487.296478 -472.769775
v -1531.33105 455.947754 -673.07135
v -1626.08337 370.129547 -435.409607
v 1022.92468 1240.91528 692.800659
v 876.068298 1279.46289 681.080933
v 831.626221 420.950562 419.874603
v 737.723755 733.029907 519.561462
v 834.79071 283.24823 546.723511
v 896.145508 1732.72937 -73.120163
v 737.07959 1745.26697 66.907135
v 908.069397 1769.42236 80.8886795
v 1220.09619 1255.13367 57.7721634
v 1239.13074 1161.03613 114.160095
v 1207.81628 1162.3363 40.1854019
v -1451.91174 162.490768 -181.007492
v -1668.46387 375.102203 -253.352539
v 853.333374 669.630615 188.327911
v 860.631653 438.907654 183.035263
v 534.063782 1639.97998 101.668732
v -8.5866518 1436.6344 290.667725
v -201.225616 -52.224762 399.690674
v -1588.66919 805.563049 187.948761
v -1676.84497 848.462158 -225.379822
v -1728.46033 640.379395 -228.655136
v 622.945679 1702.52893 348.938599
v 794.187439 1767.38147 163.082062
v 630.227173 1731.62646 146.304443
v 954.979126 933.33606 453.497833
v 1054.71533 918.199036 358.557343
v 1164.78174 1061.62598 506.108154
v 634.157288 -21.4558182 -38.0272713
v -1493.27148 1079.78687 188.90155
v -1403.62415 987.585388 386.366394
v 154.007507 1072.74976 -692.767822
v 899.102966 1383.90479 -321.868866
v 802.742126 1094.45068 -469.470398
v 696.301453 1215.17578 -373.045715
v -858.965576 965.277039 661.580322
v 822.185303 1531.8927 601.546875
v 945.314392 1367.21802 590.558838
v 1020.18719 1391.42627 599.583557
v -401.014618 1127.66333 -780.660156
v -994.082825 901.370789 -880.317688
v 495.479767 1022.89459 -483.370453
v 538.321594 945.052307 -493.250824
v -1431.65869 1244.48669 -439.858276
v -1270.53259 1267.56091 -632.92627
v -1597.44897 878.240784 -479.666962
v -1040.62866 1292.17285 -730.358337
v 1084.85474 1604.05103 329.953644
v 1121.38806 1603.29626 182.807739
v 1048.17676 1654.68213 120.278809
v 973.531799 1613.35095 515.177368
v 938.752747 1669.62012 351.680206
v 854.442871 1672.81604 433.211639
v -856.666748 1114.20276 604.218872
v 209.492828 1087.99719 564.064148
v 717.068359 844.957703 462.00528
v 765.261108 629.912781 -544.275757
v -103.054153 679.201172 -674.506592
v 163.914627 689.947876 -632.041931
v -949.273132 695.327698 691.903076
v -1379.07605 482.198608 -784.691711
v -1109.05176 593.120789 -870.294617
v -1014.24121 432.605286 -816.93634
v -1729.82581 502.258118 -238.730606
v -1661.39758 380.362854 -137.808548
v 43.9969978 1755.69141 438.035492
v 127.84935 1639.83423 343.076813
v 167.741272 1680.91333 453.840851
v 314.683472 1600.93457 195.429565
v 556.541443 1601.31958 595.881042
v 377.188354 1630.48511 547.99707
v 317.89035 1590.72632 552.197998
v -1528.99109 1204.31934 -122.418983
v -1502.20483 1236.81702 -260.660187
v 802.742126 1094.45068 -469.470398
v -1253.28516 934.647705 -820.153564
v -1040.62866 1292.17285 -730.358337
v 434.830963 1278.63049 693.474426
v 466.460327 1173.09338 701.814941
v 249.02475 1522.79309 466.806396
v 1021.81909 1688.05347 -278.107666
v 1016.42017 1702.73743 48.3523064
v 1023.26624 1617.14856 -90.0980606
v 983.462524 1633.88672 -307.801086
v 934.609009 1637.18066 -350.343201
v 1004.58344 1844.70911 -459.560272
v 963.983704 1528.12769 -290.642212
v 910.36969 1567.71155 -303.585693
v 372.404327 1461.76514 545.126465
v 472.95694 1493.15515 578.853149
v 505.474243 1682.44702 295.327148
v 309.988983 1690.08887 276.288757
v 576.490234 1495.18884 589.347534
v 906.110962 1745.81677 -246.982956
v 900.82312 1704.33044 -305.484772
v 966.996948 1762.01245 -56.9159508
v 1095.83508 1348.01245 -138.854492
v 1013.94464 1381.26733 -259.288544
v 1069.66431 1494.39526 -112.019661
v 1076.56018 1395.96765 494.894012
v 1101.97961 1372.74463 433.715027
v 1041.09277 1542.92322 457.605255
v 1052.80701 1460.06201 572.038269
v 1129.6759 1280.75513 668.854614
v 1232.59424 1418.63367 163.631638
v 1251.48596 1324.86536 166.212341
v 1022.84821 1257.70496 -278.370819
v 1106.64233 1263.27124 -124.773758
v 1004.65479 1080.93567 -372.513855
v 706.754761 1609.78638 574.31189
v 711.596558 1510.77441 616.428162
v 1113.06262 1503.42493 -8.64626503
v 1202.98779 1506.31226 182.372223
v 907.743164 1716.81482 193.088501
v 796.593506 1765.96606 97.1782074
v 539.838806 1681.23572 158.152679
v 1080.42224 994.126343 -211.629272
v 1091.09241 1151.48291 -156.027435
v 1118.71533 1109.03101 -74.8088913
v 175.462524 1720.69507 325.196899
v 967.644531 982.380432 559.262329
v 1077.3457 1026.36157 587.820068
v 614.09967 1177.12683 746.062622
v 582.56842 1253.64856 750.491516
v 1215.65698 1119.75952 317.84494
v 1068.6676 931.649963 244.419571
v 1121.13586 1011.21338 80.1044006
v 614.09967 1177.12683 746.062622
v 427.284607 1407.29529 598.010132
v 775.125305 1641.45947 -125.256355
v 853.338928 262.684845 186.475494
v 838.065735 288.91748 160.972855
v 893.702209 394.531342 65.9903183
v 845.835876 128.801132 143.362274
v 793.406433 15.1494865 77.6100235
v 911.970032 261.575256 178.742081
v 992.534729 319.574677 12.5119209
v 982.658752 432.460938 -48.2515678
v 538.824097 -41.0054588 499.175842
v 892.921326 33.074913 350.910248
v 830.796265 28.8866177 528.223511
v 892.212219 67.2241211 -275.122009
v 66.3665237 489.038574 680.217468
v 424.719849 191.917328 589.784851
v 367.419373 584.443359 627.337891
v -466.18689 475.702362 -760.208191
v -460.675049 189.082947 -746.762817
v -924.974915 201.71048 -712.028564
v 365.33551 1400.66187 -243.456833
v 137.981369 1437.56421 -190.476364
v -1440.71533 182.004227 201.817001
v -1292.91687 25.4820938 207.934357
v 1086.48621 937.488342 -3.24136996
v 83.7431107 -37.4698334 -544.904602
v 613.022705 -24.0607681 -394.164551
v 648.356934 186.487106 -581.915283
v 703.41095 454.198029 -586.593567
v -415.19928 1058.7821 631.828796
v -869.994812 -28.4383602 399.983643
v -1146.11841 200.611298 -651.150208
v -870.150574 79.5891953 -628.460999
v 732.494995 48.400238 601.849854
v 700.912598 265.765594 613.137024
v 489.611725 -14.7207251 588.852539
v 837.033264 89.2087021 -404.455292
v 605.601013 17.0014687 -540.306763
v 904.729187 254.971649 -424.123413
v 837.033264 89.2087021 -404.455292
v 892.212219 67.2241211 -275.122009
v 605.601013 17.0014687 -540.306763
v -257.228149 -9.91782665 -556.128296
v -444.000519 -11.8565273 -554.0448
v -461.658569 41.1444702 -700.935669
v 172.213562 1372.20654 -501.16037
v 96.3835907 -76.7045288 409.325653
v -1537.18103 631.203125 -697.957275
v -1379.61157 647.148682 -813.205627
v -1460.68115 886.704529 -688.557251
v -1379.61157 647.148682 -813.205627
v 580.659424 857.253601 -513.921143
v 877.048279 973.25824 -486.478973
v 978.284058 713.648438 -475.066833
v 978.284058 713.648438 -475.066833
v 877.048279 973.25824 -486.478973
v 1004.65479 1080.93567 -372.513855
v 1080.42224 994.126343 -211.629272
v 540.440002 913.757874 491.251801
v 740.710999 954.739441 492.50177
v 568.899902 1057.76404 627.952515
v 489.272034 709.651001 603.240723
v -91.1019287 619.420654 765.646973
v 157.892426 866.100403 -672.745361
v -513.834778 655.254272 -786.594299
v -1003.31305 -33.6711998 216.778381
v -1595.86963 466.660767 156.168411
v -1226.56226 1483.54028 -214.322617
v -997.331726 1595.1814 -193.650009
v 934.225464 86.754715 -98.4101181
v 915.034973 88.8401947 6.43975401
v -47.0535355 1518.54004 -238.493637
v 982.07843 872.005554 168.09259
v 987.459351 750.406067 16.4356289
v -1679.89258 626.07428 -474.020813
v -1492.72131 175.942886 -58.6031609
v -1316.13623 46.078846 -22.2630463
v -1019.67737 96.0767822 -569.65625
v 892.212219 67.2241211 -275.122009
v 837.033264 89.2087021 -404.455292
v 904.729187 254.971649 -424.123413
v 986.884888 259.767181 -252.629562
v 972.46991 494.349609 -468.25238
v 57.3109093 22.0158176 -696.132935
v 877.048279 973.25824 -486.478973
v 959.069824 1178.29822 -384.348083
v -438.065521 923.737244 731.064026
v 819.929871 970.150391 563.579224
v 673.596558 1049.19409 675.858032
v 793.406433 15.1494865 77.6100235
v 1041.47144 808.481995 -234.319153
v -257.228149 -9.91782665 -556.128296
v 892.921326 33.074913 350.910248
v 982.07843 872.005554 168.09259
v -1407.36426 1367.56018 -194.848068
v -401.014618 1127.66333 -780.660156
v 381.914124 1255.15625 563.941833
v 447.946411 1106.38208 -434.134918
v 696.301453 1215.17578 -373.045715
v -401.014618 1127.66333 -780.660156
v 972.46991 494.349609 -468.25238
v -693.117615 1299.98657 -753.307556
v -994.082825 901.370789 -880.317688
v -1253.28516 934.647705 -820.153564
v 1192.4248 1470.51892 231.923676
v 730.046753 1306.02136 727.926941
v 692.837036 1387.18372 661.835876
v 459.52243 1322.65759 697.86731
v 982.07843 872.005554 168.09259
v 760.782043 1083.32019 897.906433
v 574.748901 1211.65051 786.161865
v 285.531525 1111.87512 863.10376
v 543.086792 913.501892 994.205322
v 784.505493 813.173401 762.368164
v 567.598938 673.610596 938.462891
v 1000.71228 1064.13916 632.118225
v 969.752625 1193.86633 700.258911
v 884.327576 1268.81421 688.335205
v 1328.87561 1138.99023 401.976013
v 1593.31421 971.618774 73.1884308
v 1483.25879 1154.776 -49.3747482
v 1286.71191 1227.23328 261.194794
v 1273.15295 927.022888 372.586487
v 1515.18225 811.297913 130.307281
v 1108.05029 1032.02551 488.715698
v 1152.17432 1157.94299 569.292542
v 1139.02576 1278.70703 516.305115

# 363 UV coordinates
vt 0.180208236 0.373803675 0
vt 0.0815193057 0.396238267 0
vt 0.226264626 0.277087927 0
vt 0.316689044 0.912741065 0
vt 0.328264236 0.892394423 0
vt 0.242702961 0.877365112 0
vt 0.354460239 0.503501773 0
vt 0.488199025 0.414262056 0
vt 0.258813053 0.407400668 0
vt 0.787285268 0.448482037 0
vt 0.872040093 0.491653264 0
vt 0.88119638 0.533520818 0
vt 0.490402997 0.859735429 0
vt 0.581207216 0.786552966 0
vt 0.465626657 0.835953474 0
vt 0.104606844 0.370018244 0
vt 0.0643186569 0.418867588 0
vt 0.0731281191 0.431854308 0
vt 0.0787268579 0.777941942 0
vt 0.0917900354 0.743487477 0
vt 0.142688602 0.822651625 0
vt 0.344254792 0.544694483 0
vt 0.292158633 0.535895824 0
vt 0.405211508 0.900942922 0
vt 0.480575621 0.872812986 0
vt 0.488424987 0.723422647 0
vt 0.469763696 0.710487545 0
vt 0.458581924 0.68367666 0
vt 0.469328672 0.529753625 0
vt 0.490061343 0.595664561 0
vt 0.478868127 0.63653934 0
vt 0.880650282 0.374462008 0
vt 0.806203485 0.320881844 0
vt 0.850692451 0.27438879 0
vt 0.805325985 0.743187606 0
vt 0.851818204 0.770684898 0
vt 0.845041513 0.718299985 0
vt 0.735302567 0.640769839 0
vt 0.699736357 0.704154134 0
vt 0.774034798 0.664808035 0
vt 0.291997254 0.427852988 0
vt 0.258360803 0.33984983 0
vt 0.264712512 0.456289172 0
vt 0.84058398 0.438973665 0
vt 0.874994278 0.378578424 0
vt 0.844957888 0.373314023 0
vt 0.68276 0.736499012 0
vt 0.62286067 0.777245045 0
vt 0.450656027 0.886861086 0
vt 0.385617524 0.220642626 0
vt 0.317455947 0.229942918 0
vt 0.407274753 0.162576973 0
vt 0.372884363 0.558145285 0
vt 0.288302243 0.664398313 0
vt 0.386778444 0.506733179 0
vt 0.406592339 0.68235749 0
vt 0.391332775 0.62632674 0
vt 0.43904832 0.621627271 0
vt 0.0231290162 0.609071851 0
vt 0.0353788659 0.518546343 0
vt 0.0261198916 0.615176618 0
vt 0.0413070805 0.516637683 0
vt 0.62904036 0.257259727 0
vt 0.569011867 0.346698761 0
vt 0.619235218 0.359166026 0
vt 0.305218428 0.44302088 0
vt 0.286886901 0.38318634 0
vt 0.386534929 0.443777144 0
vt 0.173923463 0.457683921 0
vt 0.581045389 0.45406127 0
vt 0.596525669 0.401463985 0
vt 0.672535539 0.364795327 0
vt 0.1189446 0.820951462 0
vt 0.347252488 0.764770508 0
vt 0.213827208 0.808596492 0
vt 0.318363398 0.716935337 0
vt 0.62505424 0.266936183 0
vt 0.642892838 0.363437891 0
vt 0.744659305 0.372142196 0
vt 0.645139217 0.420912027 0
vt 0.558819294 0.386806607 0
vt 0.371156335 0.340499341 0
vt 0.362228364 0.899704218 0
vt 0.304223657 0.888656676 0
vt 0.398543656 0.827246666 0
vt 0.450070143 0.854336023 0
vt 0.0573087409 0.699001193 0
vt 0.765150726 0.222583354 0
vt 0.776007652 0.186177313 0
vt 0.800896764 0.202814877 0
vt 0.139464661 0.696718812 0
vt 0.145787284 0.327097476 0
vt 0.542504668 0.74438566 0
vt 0.443866611 0.819437444 0
vt 0.510434389 0.743626833 0
vt 0.341226459 0.56499207 0
vt 0.458968729 0.498775244 0
vt 0.527106166 0.488694549 0
vt 0.518683612 0.514800847 0
vt 0.49029696 0.52323252 0
vt 0.49267751 0.481990099 0
vt 0.473372102 0.508563161 0
vt 0.400673211 0.723595977 0
vt 0.413337618 0.773377776 0
vt 0.319727987 0.616468132 0
vt 0.442045391 0.392108321 0
vt 0.185459808 0.64564693 0
vt 0.265146852 0.647207677 0
vt 0.191483393 0.606027544 0
vt 0.694790423 0.440523803 0
vt 0.63459146 0.478692591 0
vt 0.668330848 0.222609043 0
vt 0.615105689 0.31551218 0
vt 0.638291776 0.151076794 0
vt 0.833027482 0.782642126 0
vt 0.742133975 0.783103168 0
vt 0.801297009 0.773239553 0
vt 0.91540885 0.534384847 0
vt 0.903267443 0.482610345 0
vt 0.91144222 0.504183471 0
vt 0.178402141 0.511163414 0
vt 0.143106729 0.591014743 0
vt 0.734921396 0.34916091 0
vt 0.732106745 0.268459737 0
vt 0.650096416 0.756788373 0
vt 0.428916633 0.710555673 0
vt 0.350830406 0.231723547 0
vt 0.0466026217 0.657141924 0
vt 0.124856725 0.730539739 0
vt 0.119525313 0.668797255 0
vt 0.631512225 0.741262376 0
vt 0.728527427 0.771824539 0
vt 0.68270874 0.77920419 0
vt 0.709516168 0.378134131 0
vt 0.745074689 0.363899708 0
vt 0.781345546 0.383032918 0
vt 0.744236231 0.25093019 0
vt 0.0584713891 0.734402299 0
vt 0.0292230137 0.674124837 0
vt 0.677048206 0.678475976 0
vt 0.870888114 0.678570569 0
vt 0.856081724 0.603865445 0
vt 0.807051182 0.645192087 0
vt 0.0881799012 0.584013939 0
vt 0.643099368 0.606190681 0
vt 0.685097992 0.521467686 0
vt 0.71083653 0.518650174 0
vt 0.354430169 0.843911707 0
vt 0.281605244 0.780082703 0
vt 0.677288294 0.626852393 0
vt 0.620205939 0.6263327 0
vt 0.216967523 0.842117965 0
vt 0.2999264 0.855677247 0
vt 0.190268412 0.748030365 0
vt 0.347966909 0.865708292 0
vt 0.814036787 0.646074891 0
vt 0.863101244 0.66653651 0
vt 0.846059978 0.701271892 0
vt 0.718814909 0.633543134 0
vt 0.758951545 0.687270463 0
vt 0.692740381 0.690944433 0
vt 0.101870693 0.636883855 0
vt 0.427194893 0.520128012 0
vt 0.622983813 0.376367331 0
vt 0.40891552 0.601873994 0
vt 0.326453477 0.653408647 0
vt 0.362987518 0.639955759 0
vt 0.0706575066 0.499971688 0
vt 0.32148841 0.653895617 0
vt 0.163517073 0.741559029 0
vt 0.131192267 0.677510023 0
vt 0.12483675 0.629413068 0
vt 0.118854277 0.578907311 0
vt 0.400512278 0.809168339 0
vt 0.455074996 0.766542077 0
vt 0.446247876 0.759959936 0
vt 0.553434849 0.748781562 0
vt 0.538449585 0.667144358 0
vt 0.485396743 0.709873438 0
vt 0.46438992 0.697275102 0
vt 0.123943731 0.807101786 0
vt 0.159379154 0.828144014 0
vt 0.669449687 0.606566548 0
vt 0.339715809 0.774511993 0
vt 0.37957707 0.85127008 0
vt 0.471440434 0.534493566 0
vt 0.480309904 0.490540683 0
vt 0.46370253 0.690446913 0
vt 0.922636807 0.780623734 0
vt 0.850875497 0.736472666 0
vt 0.88428992 0.723598123 0
vt 0.911177814 0.766315818 0
vt 0.91027838 0.78624022 0
vt 0.960747719 0.866499424 0
vt 0.897282422 0.725571454 0
vt 0.883791089 0.747438788 0
vt 0.484995514 0.639555216 0
vt 0.515664279 0.638615608 0
vt 0.60097307 0.753142476 0
vt 0.534984112 0.77374351 0
vt 0.558430493 0.625835359 0
vt 0.875278115 0.807617068 0
vt 0.888115466 0.804014027 0
vt 0.862440765 0.78352505 0
vt 0.910957217 0.61633867 0
vt 0.902278662 0.654373467 0
vt 0.899515152 0.667661905 0
vt 0.75969553 0.532105088 0
vt 0.791026354 0.52850008 0
vt 0.767588854 0.603202462 0
vt 0.739666462 0.549735069 0
vt 0.739348054 0.440891206 0
vt 0.902968287 0.585899413 0
vt 0.908856988 0.540682316 0
vt 0.90641737 0.609580994 0
vt 0.908966839 0.573052943 0
vt 0.911106825 0.563497305 0
vt 0.601246357 0.65691483 0
vt 0.575467408 0.608940303 0
vt 0.900659561 0.639970243 0
vt 0.892849982 0.616149008 0
vt 0.780792117 0.734236836 0
vt 0.758156061 0.785186172 0
vt 0.641569376 0.764417768 0
vt 0.884679139 0.482617557 0
vt 0.904831231 0.543265283 0
vt 0.895578325 0.510432601 0
vt 0.475595802 0.796618164 0
vt 0.695396543 0.374148846 0
vt 0.731111109 0.368037105 0
vt 0.502569556 0.441644549 0
vt 0.505057871 0.496340871 0
vt 0.852500021 0.435531378 0
vt 0.808995366 0.399873137 0
vt 0.866624773 0.455293179 0
vt 0.517949462 0.46317637 0
vt 0.491794586 0.602902174 0
vt 0.778343558 0.760899484 0
vt 0.724351764 0.213199973 0
vt 0.723921955 0.229663074 0
vt 0.764623642 0.273169041 0
vt 0.726789832 0.18214488 0
vt 0.720819533 0.16914165 0
vt 0.744549572 0.206835032 0
vt 0.804956853 0.243777156 0
vt 0.813787162 0.294875264 0
vt 0.554118633 0.101029873 0
vt 0.697294295 0.104087591 0
vt 0.637743533 0.0752502084 0
vt 0.81940037 0.233069479 0
vt 0.358071983 0.306095302 0
vt 0.492967069 0.17676425 0
vt 0.464710295 0.305242181 0
vt 0.273813337 0.607011735 0
vt 0.208823338 0.486183643 0
vt 0.117182739 0.575331986 0
vt 0.670482099 0.727116823 0
vt 0.587621212 0.755885601 0
vt 0.0947639793 0.463106036 0
vt 0.130928576 0.404778361 0
vt 0.837004304 0.40883559 0
vt 0.845353067 0.373873949 0
vt 0.822779059 0.259505391 0
vt 0.325060904 0.408683002 0
vt 0.391445935 0.528971434 0
vt 0.217728212 0.566947222 0
vt 0.188224971 0.318101585 0
vt 0.343830526 0.543409765 0
vt 0.106585793 0.519609272 0
vt 0.588575244 0.081467092 0
vt 0.577181816 0.152792931 0
vt 0.513429344 0.103571415 0
vt 0.361688048 0.241884112 0
vt 0.317678303 0.272659481 0
vt 0.33509925 0.343296289 0
vt 0.849777758 0.274049699 0
vt 0.819055021 0.232819557 0
vt 0.859552801 0.302027225 0
vt 0.193092316 0.32827574 0
vt 0.143860281 0.389966011 0
vt 0.173480406 0.420022607 0
vt 0.66427803 0.766157985 0
vt 0.437779546 0.177872896 0
vt 0.260217637 0.696625471 0
vt 0.318193913 0.700575173 0
vt 0.271034688 0.761403799 0
vt 0.317473233 0.701728761 0
vt 0.515501797 0.636998832 0
vt 0.605403781 0.58645606 0
vt 0.519477427 0.522844672 0
vt 0.56990999 0.350180268 0
vt 0.547000825 0.416580081 0
vt 0.570046782 0.421468377 0
vt 0.588183284 0.413582742 0
vt 0.556631029 0.420692801 0
vt 0.627841175 0.394524992 0
vt 0.521417022 0.425072908 0
vt 0.506588995 0.321981013 0
vt 0.292128563 0.346719146 0
vt 0.440824062 0.676186562 0
vt 0.314063221 0.667398334 0
vt 0.196743906 0.356382728 0
vt 0.0600069389 0.560224652 0
vt 0.211527631 0.882575989 0
vt 0.258342415 0.900491416 0
vt 0.801694095 0.202765703 0
vt 0.775319159 0.186987698 0
vt 0.540810108 0.807052493 0
vt 0.741365552 0.380579591 0
vt 0.817277968 0.387408614 0
vt 0.182367191 0.683691382 0
vt 0.143239275 0.499238491 0
vt 0.177209705 0.443608999 0
vt 0.0722464547 0.499139905 0
vt 0.679607987 0.112118661 0
vt 0.601123631 0.104183495 0
vt 0.534632742 0.184333801 0
vt 0.689273775 0.150056362 0
vt 0.388014704 0.444120169 0
vt 0.874626458 0.37704587 0
vt 0.883203924 0.557711661 0
vt 0.900039077 0.60561651 0
vt 0.18325974 0.510890722 0
vt 0.640433908 0.387009919 0
vt 0.556237161 0.419920564 0
vt 0.721677363 0.169952989 0
vt 0.887856781 0.443142533 0
vt 0.840230167 0.438542008 0
vt 0.660723984 0.187141418 0
vt 0.738085747 0.37804091 0
vt 0.165037557 0.855507493 0
vt 0.590115368 0.732157648 0
vt 0.484808534 0.555732012 0
vt 0.735566199 0.637599707 0
vt 0.787475467 0.594208419 0
vt 0.518806338 0.780213714 0
vt 0.530616283 0.292908311 0
vt 0.425715506 0.84801966 0
vt 0.274776965 0.78185004 0
vt 0.329221249 0.783728898 0
vt 0.870628953 0.592909992 0
vt 0.566220105 0.501347899 0
vt 0.573136568 0.546657324 0
vt 0.479901701 0.56283313 0
vt 0.741213858 0.381248951 0
vt 0.268651515 0.416137338 0
vt 0.21939896 0.643012643 0
vt 0.0229468644 0.539746344 0
vt 0.0743483454 0.245679021 0
vt 0.343133241 0.0882469416 0
vt 0.125749826 -0.0483883619 0
vt 0.509735405 0.428007126 0
vt 0.4629547 0.586595714 0
vt 0.415851057 0.746278942 0
vt 0.316869438 0.436277986 0
vt 0.069072172 0.222357631 0
vt 0.102102548 0.633652806 0
vt 0.291094571 0.674406528 0
vt 0.344727665 0.163215995 0
vt 0.138348609 0.0224922299 0
vt 0.512518406 0.346969128 0
vt 0.487502128 0.502484798 0
vt 0.462313086 0.659073889 0

# 316 vertex normals
vn -5.00801373 -24.9770451 96.7009201
vn -24.340004 -27.2666683 93.0811234
vn -2.57344389 -65.2800217 75.7092819
vn -26.3100586 93.2923203 -24.583004
vn -35.6072578 75.9300308 -54.4679413
vn -56.4809723 75.4269409 -33.4764938
vn -26.2843876 -86.9487686 -41.821579
vn -6.59635162 -98.1563187 -17.9395313
vn -13.9121952 -98.1307144 -13.2971764
vn 91.8797607 20.7624702 33.5712738
vn 97.3580933 11.3250065 19.82794
vn 87.8021622 39.6653938 26.7849979
vn 10.2216911 63.0821571 -76.9165802
vn 17.7233124 43.7604485 -88.1527481
vn 0.288310707 44.8713799 -89.3670959
vn -38.2425385 -74.2998428 54.9276123
vn -50.1572952 -31.4887867 80.5773087
vn -70.3347702 -46.8529015 53.4586449
vn -53.8613129 64.1119614 54.6682358
vn -21.6586094 67.7573776 70.2840271
vn -28.1974316 87.1945877 40.0251083
vn -30.4456406 -67.3654709 -67.3420792
vn -42.6887665 -80.0904083 -41.9904327
vn -6.55494547 82.7601929 -55.7474937
vn 17.2236214 79.3370132 -58.3865166
vn -87.5684891 44.5346603 -18.6661015
vn -44.954258 85.6961288 25.2049351
vn -50.4541626 64.2107697 57.7178841
vn -5.25424242 32.562088 94.4039459
vn -72.7893753 7.96527624 68.1047745
vn -40.1467094 11.3184366 90.8852844
vn 99.5775375 -7.62889194 -5.11019564
vn 88.7477112 -10.0904236 44.9669762
vn 94.5862808 -29.9975891 -12.3928137
vn -23.8238754 54.6580429 -80.2802734
vn -75.1083145 45.6745453 -47.6715736
vn -23.6686764 28.3831329 -92.9203644
vn 33.2174187 51.8048172 -78.8217239
vn 28.9303932 63.0088348 -72.0619125
vn -5.38008595 42.3977776 -90.4073334
vn 15.0938883 -6.20571232 -98.6593323
vn 8.23675537 -64.8421783 -75.6812286
vn 4.96875668 -9.98628521 -99.3759842
vn -2.8687048 -98.4011078 -17.5782146
vn 0.470943689 -98.2120667 -18.8194027
vn 40.8468781 51.0403442 -75.6730881
vn 30.8880539 90.5993729 -28.9427395
vn 13.484129 92.6428452 -35.1494522
vn 2.12408996 -22.6595554 97.3757248
vn -3.75726819 -65.8448334 75.1687469
vn -6.74673462 -68.11586 72.9020615
vn -12.699708 42.1750908 89.7773895
vn 1.64235306 69.4503403 71.9302063
vn 0.827287614 55.5385666 83.1551819
vn -26.5048122 75.0830154 60.4982262
vn -26.5068207 42.325573 86.6368027
vn 0.686952353 42.3173523 90.6022644
vn -75.8406677 7.81191587 64.7083282
vn -53.3845253 -5.11521721 84.4033737
vn -48.0089264 22.028326 84.9111099
vn -76.2777328 -17.6247005 62.2180023
vn 69.2984695 4.05460835 -71.9811172
vn 98.6357117 -15.1831074 -6.36157465
vn 12.3556385 42.0546494 89.8818512
vn 13.1685524 11.5116873 98.4584732
vn 14.5032625 36.8878326 91.8092804
vn -7.33254099 5.44474792 99.5820694
vn 20.100668 4.7434597 97.8440857
vn 10.3209829 -50.2820206 85.8207169
vn 23.379797 -73.2960892 63.883255
vn -59.5516739 75.0350647 28.6938705
vn 3.74280882 89.3084641 44.8329163
vn -1.40023375 87.4674683 48.4508095
vn -3.79350901 78.2339478 62.1695938
vn 13.3668308 -97.4843216 17.8363609
vn -2.23409152 -99.3010406 11.589324
vn -0.387796402 -99.9432602 -3.34593701
vn -6.86227846 -97.8930283 19.231905
vn -3.46148014 -99.7943726 -5.39460611
vn 2.04693365 99.7088776 -7.34513092
vn -3.16833711 97.4651337 22.1474686
vn 12.1460428 95.6964035 26.356678
vn 20.1996346 97.8713531 -3.62968302
vn -39.0863953 45.5117798 80.0058212
vn 64.7957764 22.7295609 72.6971512
vn 74.9071808 -62.1918716 22.8273048
vn 78.8278122 -61.5023384 -1.90781415
vn -2.27135849 69.0983963 72.2513275
vn -15.4411535 -67.1611633 72.4634247
vn -1.93253791 97.1378403 -23.6750031
vn 14.3375187 98.6058273 8.44554996
vn -30.8304729 95.0411377 -4.08212519
vn 14.690299 12.3775129 -98.1376266
vn 15.734889 32.1679115 93.3682938
vn -16.6743107 -28.2865429 94.4554977
vn -14.60709 -47.7399673 86.6459961
vn -59.6863403 -31.8361111 73.6478424
vn -64.4187241 -61.5554085 45.4000053
vn -81.3816299 -25.7556114 52.0929909
vn 18.3958607 -4.90627623 -98.1708755
vn 13.2670488 21.0308228 -96.8591232
vn 35.5598869 20.4835854 -91.1916504
vn 30.6800575 19.1880341 93.2231522
vn -89.44841 -24.2439022 -37.566143
vn -64.7292328 -43.4860001 -62.6026726
vn -70.5166855 -63.6582413 -31.2254124
vn 16.2468796 12.7799377 97.8402481
vn 20.5433731 50.0106621 84.1243362
vn 98.0438843 11.6559095 15.8599043
vn 67.2109833 30.5892887 67.4312897
vn 78.2860718 9.14056492 61.544632
vn -43.9530067 87.1476212 -21.7583408
vn -33.0410767 85.820816 -39.2820168
vn 23.1428699 96.6858826 10.7818069
vn 89.4177017 9.62806702 -43.7238541
vn 93.0267792 -31.5838947 -18.6674976
vn 86.1503906 -27.0579796 -42.9648247
vn -55.7823639 -80.4987946 -20.2057304
vn -81.2659531 -57.6987915 -8.16667557
vn 86.4597702 -7.5224781 49.6801834
vn 94.0238037 -13.955368 31.0608234
vn -36.4666977 82.1946869 -43.7517357
vn -19.6275883 91.88797 34.2251472
vn -90.4200745 15.4609003 39.8142357
vn -94.945076 31.3328381 -1.92008758
vn -99.2526169 11.5321884 3.99086761
vn -15.0855627 94.9263077 27.5938663
vn 1.26994491 98.6533356 16.3066616
vn -36.4548683 91.0537567 -19.5001717
vn 11.4762554 -96.023056 25.4532433
vn 44.0395622 -87.3338699 20.8161659
vn 78.9850159 -51.2430611 33.6974144
vn 17.918644 -98.3539581 -2.32840466
vn -81.5232239 43.0271416 38.7637634
vn -70.3772202 33.6753311 62.5541306
vn 15.4017849 28.698637 -94.5472031
vn 10.5444689 34.6285324 -93.2184525
vn -15.20893 53.5500984 -83.0727081
vn -17.870739 31.6467972 93.1617813
vn 17.215023 36.1714401 91.6257019
vn 2.67853522 30.7614574 95.1133957
vn -6.88423824 35.3779335 93.2791977
vn -2.32881808 12.5273972 -99.1848831
vn 28.4182034 40.9228745 -86.7048111
vn 23.00811 16.5761395 -95.8950424
vn -74.3992538 53.5307922 -39.9900703
vn -54.4199944 54.5523949 -63.737751
vn -85.4552612 34.1978607 -39.0884285
vn -21.8436298 51.7122459 -82.7568741
vn 67.8996201 66.4837341 31.1376934
vn 68.7479324 72.4476776 -5.0057497
vn 68.4282303 72.9085236 -1.3875699
vn 43.5429382 70.5733795 55.8874855
vn 35.5408211 90.7192535 22.5137424
vn 13.4156065 92.3581314 35.9165611
vn -10.0185947 51.1139145 85.3638992
vn -4.45789003 42.1247025 90.5849686
vn 63.404377 -3.51798606 77.2496567
vn 23.71348 8.9964056 -96.730217
vn 18.3133144 -7.11555481 -98.050972
vn 18.5697002 0.837090313 -98.2571487
vn -25.3843956 1.87546623 96.706337
vn -38.9280739 -39.157196 -83.3745651
vn -6.57587337 -15.2388153 -98.6130676
vn -2.73660994 -32.6404953 -94.4833832
vn -98.1138916 -19.0397434 3.33964062
vn -86.1322403 -48.5051003 15.1159687
vn -76.6852264 50.8873482 39.1133614
vn -84.8293152 -31.741827 -42.3844795
vn -39.560524 40.8631554 82.2506256
vn -42.1204491 79.823555 -43.058918
vn -1.831496 51.7132912 85.5709152
vn -7.1370945 76.1656876 64.403801
vn -41.6482964 7.35499048 90.6163712
vn -85.5305634 49.8492165 14.1273174
vn -83.2598724 52.5814896 -17.4063129
vn -36.1104317 26.4402199 -89.4256821
vn -70.4237518 8.59491825 70.4742737
vn -45.9857597 -38.9994507 79.7768936
vn -71.8877869 -21.8246517 65.9987183
vn 98.4619522 -11.9641399 -12.7319508
vn 78.0019379 62.1442451 7.33423281
vn 97.0521164 16.8820992 -17.2012615
vn 79.7088776 -37.2122345 -47.5578041
vn -24.4680767 -35.1065331 -90.3816528
vn 20.235754 59.4742241 -77.8031616
vn 65.2206116 -2.58225918 -75.7601776
vn -41.6894035 -4.95304346 -90.7604675
vn -54.1570969 -9.9496994 83.4746246
vn -19.2338696 10.8471384 97.5315323
vn -19.3191833 98.0093231 4.57634068
vn -14.8363228 87.7431412 -45.6182785
vn -15.9608583 33.1741905 92.977005
vn -83.9549408 54.3148575 -1.21005249
vn -91.6621246 17.4894619 -35.9468193
vn 29.7121258 95.4763489 1.20723796
vn 87.2809219 14.2603006 -46.676403
vn 73.1726532 20.2012062 -65.0974197
vn 86.1178513 31.4954739 -39.8967667
vn 89.4992371 42.3803558 13.9209442
vn 78.307045 51.139183 35.3948097
vn 84.6959229 37.6325188 37.5552444
vn 66.8835373 44.867569 59.2747269
vn 60.7915344 24.2502117 75.6063309
vn 94.770752 29.4490166 -12.2988157
vn 98.4615631 11.6285896 -13.0421228
vn 76.3206787 21.4852295 -60.9388199
vn 88.1446075 5.46920252 -46.9107437
vn 73.7389145 17.0676842 -65.3549271
vn 1.71593404 68.3109283 73.0114594
vn -5.53056431 41.1627083 90.9672699
vn 79.8248291 45.4817314 -39.4893723
vn 88.7617111 46.0530891 0.688488185
vn 41.6066895 87.1270828 26.0337429
vn -12.0396566 97.0376587 -20.9461346
vn -41.0841331 86.0054626 -30.2515163
vn 95.6606293 -9.26107979 -27.6274452
vn 91.8843002 -1.51069093 -39.4334335
vn 90.1999207 -28.7844086 -32.1781311
vn -11.573226 80.8485489 -57.702446
vn 24.6641979 -93.3043823 26.1910076
vn 51.8775597 -65.6426163 54.7701187
vn -9.07146835 -26.1889076 96.0825272
vn -11.1389017 16.256443 98.0390472
vn 90.6208115 -41.4132233 8.53313637
vn 71.1236496 -70.294548 -0.32285887
vn 82.0779266 -56.053566 -11.0096178
vn -59.817852 33.0411682 73.007576
vn -42.137146 78.536171 -45.3490105
vn 84.4685822 28.8651237 45.0762253
vn 76.0830536 43.2859535 48.34972
vn 77.3080444 13.4610434 61.9860306
vn 96.7097397 -24.788084 5.72519445
vn 53.6832504 -84.3383408 -2.27049112
vn 46.1694489 -3.45562434 88.6365662
vn 97.5681 -4.28956032 21.4957008
vn 96.7992401 -6.63317299 24.205534
vn 84.7817612 -52.9624176 2.65275335
vn 67.1987762 -57.4504013 46.7308998
vn 67.9374619 -71.0284424 -18.4244995
vn 15.0376978 -23.8838673 95.9345093
vn 0.153279483 -9.27174282 99.5691299
vn 14.6521511 -12.8078728 98.088089
vn 14.2852306 -9.20183754 -98.5457153
vn -3.23939514 -26.0961514 -96.4805527
vn -13.0003138 -47.3430367 -87.1184845
vn -4.38567495 88.2854767 -46.7593994
vn 15.6280413 97.5892868 -15.2346954
vn -76.829567 -56.1671562 30.6996498
vn -47.0314255 -86.8864746 15.4527197
vn 91.1336975 -41.1027603 2.28352261
vn 22.4681721 -96.0929489 -16.1656055
vn 38.2842407 -18.3807049 -90.5343399
vn 30.5220013 0.563549221 -95.2265244
vn 6.21561575 59.6360016 80.0307083
vn -9.59465027 -94.3893661 31.6004868
vn -18.1683636 -79.1119919 -58.405529
vn 26.3266392 -44.1219368 85.7913971
vn 22.7491684 2.57295775 97.3440018
vn 2.44664526 -62.4531441 78.0616302
vn 62.1878815 -58.5686646 -51.9844131
vn 33.4990158 -67.2970428 -65.946373
vn 74.1722031 -28.5761013 -60.6785927
vn -8.62066269 -72.3856201 -68.4544144
vn 41.1780701 71.5504837 -56.4348679
vn -72.3231735 6.60444307 -68.7440262
vn -42.8799133 1.39681554 -90.3292007
vn -69.0515137 32.7161407 -64.5100403
vn 19.4433041 11.5504169 -97.4091721
vn 39.3219604 17.2815723 -90.3057709
vn 19.2816372 -6.36624527 97.9167557
vn 11.9668331 -80.2883453 58.4001427
vn -35.0629768 -72.0007935 59.8871765
vn 26.1127167 17.6750641 94.8984756
vn 9.20435333 -17.2789917 98.0648651
vn 26.6346779 -5.17246723 -96.2488403
vn 18.0507565 -10.6175222 -97.782608
vn -13.61936 -99.025116 2.92240882
vn -89.3370285 -22.2680531 39.0260277
vn -49.2261276 87.0350266 -1.30167186
vn -29.6186676 95.1761932 8.01431179
vn 28.3246994 95.5311432 -8.4565506
vn 69.0489197 -64.8814697 31.9787617
vn 92.685257 -20.0482655 31.7412949
vn -91.6546936 11.579608 -38.2796288
vn -73.0950775 -67.9449387 6.37146521
vn -41.5583801 -90.455925 -9.51989174
vn 75.0766373 -11.9619112 -64.9647141
vn 50.9212494 30.3151302 -80.5482483
vn -0.549147904 37.651844 92.6392899
vn -6.98067045 -91.6717072 39.3391571
vn -20.0391541 -74.9705505 63.0701904
vn -67.2852631 73.9717865 0.931801975
vn -82.0006256 13.9865303 55.5002251
vn 85.0503311 32.5357933 41.326313
vn 14.8121147 43.9163513 88.6112595
vn 8.99782372 48.5988655 86.9320984
vn -41.6558685 39.8107605 81.7306137
vn 43.2094727 25.769125 86.4227676
vn 4.88655424 61.5601997 78.6540756
vn -2.54615068 57.3873749 81.8547974
vn 38.4329567 16.3402977 90.8620071
vn 66.2352295 -22.8806896 71.3398132
vn 62.6104012 -22.1201611 74.7705612
vn 71.217186 -23.8849087 66.0123138
vn 56.1045837 20.1133537 80.29776
vn 18.5039749 67.9196091 71.0248642
vn 75.6024628 23.7707558 60.9854012
vn 79.2226257 25.7689724 55.3148956
vn 70.8142853 65.4410095 26.5105991
vn 69.3999557 67.2283325 25.7681618
vn 61.3674393 -27.9605637 73.8393173
vn 68.4348984 -19.3696022 70.2956848
vn 49.5885773 -39.7766037 77.1932526
vn 63.1657295 -0.81384474 77.5205154
vn 68.5613251 49.4363556 53.4358597

# Mesh 'dingus-0' with 592 faces
g dingus-0
usemtl dingus
f  1/1/1 2/2/2 3/3/3
f  4/4/4 5/5/5 6/6/6
f  7/7/7 8/8/8 9/9/9
f  10/10/10 11/11/11 12/12/12
f  13/13/13 14/14/14 15/15/15
f  16/16/16 17/17/17 18/18/18
f  19/19/19 20/20/20 21/21/21
f  22/22/22 7/7/7 23/23/23
f  13/13/13 24/24/24 25/25/25
f  26/26/26 27/27/27 28/28/28
f  29/29/29 30/30/30 31/31/31
f  32/32/32 33/33/33 34/34/34
f  35/35/35 36/36/36 37/37/37
f  38/38/38 39/39/39 40/40/40
f  41/41/41 42/42/42 43/43/43
f  44/44/44 45/45/42 46/46/45
f  13/13/13 25/25/25 47/47/46
f  48/48/47 25/25/25 49/49/48
f  50/50/49 51/51/50 52/52/51
f  53/53/52 54/54/53 55/55/54
f  56/56/55 57/57/56 58/58/57
f  59/59/58 60/60/59 61/61/60
f  62/62/61 60/60/59 59/59/58
f  63/63/32 64/64/62 65/65/63
f  66/66/64 67/67/65 68/68/66
f  69/69/67 67/67/65 66/66/64
f  70/70/68 71/71/69 72/72/70
f  21/21/21 73/73/71 19/19/19
f  74/74/72 75/75/73 76/76/74
f  77/77/75 78/78/76 79/79/77
f  78/78/76 80/80/78 79/79/77
f  8/8/8 81/81/44 82/82/79
f  83/83/80 84/84/81 85/85/82
f  83/83/80 85/85/82 86/86/83
f  20/20/20 19/19/19 87/87/84
f  88/88/85 89/89/86 90/90/87
f  91/91/88 55/55/54 54/54/53
f  92/92/89 3/3/3 2/2/2
f  93/93/90 94/94/91 95/95/92
f  41/41/41 43/43/43 96/96/93
f  97/97/94 98/98/95 99/99/96
f  100/100/97 101/101/98 102/102/99
f  66/66/64 68/68/66 55/55/54
f  103/103/100 104/104/101 105/105/102
f  68/68/66 106/106/103 97/97/94
f  107/107/104 108/108/105 109/109/106
f  70/70/68 110/110/107 111/111/108
f  112/112/109 113/113/110 114/114/111
f  115/115/112 116/116/113 117/117/114
f  118/118/115 119/119/116 120/120/117
f  85/85/82 94/94/91 86/86/83
f  121/121/118 122/122/119 109/109/106
f  123/123/120 124/124/121 33/33/33
f  82/82/79 9/9/9 8/8/8
f  95/95/92 125/125/122 93/93/90
f  112/112/109 124/124/121 123/123/120
f  126/126/123 95/95/92 94/94/91
f  127/127/78 82/82/79 81/81/44
f  112/112/109 123/123/120 113/113/110
f  128/128/124 129/129/125 130/130/126
f  131/131/127 132/132/128 133/133/129
f  134/134/130 135/135/131 136/136/132
f  27/27/27 95/95/92 126/126/123
f  79/79/77 137/137/133 77/77/75
f  19/19/19 138/138/134 139/139/135
f  47/47/46 140/140/102 14/14/14
f  141/141/136 142/142/137 143/143/138
f  144/144/139 87/87/84 61/61/60
f  145/145/140 146/146/141 147/147/142
f  15/15/15 148/148/101 149/149/143
f  140/140/102 150/150/144 151/151/145
f  152/152/146 153/153/147 154/154/148
f  155/155/149 5/5/5 24/24/24
f  143/143/138 38/38/38 40/40/40
f  14/14/14 13/13/13 47/47/46
f  156/156/150 157/157/151 158/158/152
f  159/159/153 160/160/154 161/161/155
f  162/162/156 87/87/84 144/144/139
f  97/97/94 163/163/157 55/55/54
f  113/113/110 123/123/120 164/164/158
f  165/165/159 166/166/160 167/167/161
f  168/168/162 1/1/1 69/69/67
f  169/169/163 170/170/164 171/171/165
f  172/172/166 122/122/119 173/173/167
f  174/174/168 175/175/169 176/176/170
f  177/177/171 27/27/27 26/26/26
f  178/178/172 179/179/173 180/180/174
f  97/97/94 55/55/54 68/68/66
f  61/61/60 139/139/135 59/59/58
f  129/129/125 181/181/175 182/182/176
f  183/183/137 151/151/145 150/150/144
f  184/184/177 153/153/147 185/185/149
f  186/186/178 102/102/99 187/187/179
f  28/28/28 188/188/180 26/26/26
f  189/189/181 190/190/182 191/191/183
f  192/192/184 193/193/185 194/194/186
f  195/195/187 196/196/188 193/193/185
f  27/27/27 177/177/171 95/95/92
f  197/197/189 198/198/190 180/180/174
f  198/198/190 178/178/172 180/180/174
f  199/199/191 179/179/173 178/178/172
f  199/199/191 200/200/192 179/179/173
f  198/198/190 201/201/193 178/178/172
f  31/31/31 188/188/180 28/28/28
f  115/115/112 202/202/194 203/203/195
f  36/36/36 115/115/112 203/203/195
f  192/192/184 195/195/187 193/193/185
f  189/189/181 192/192/184 194/194/186
f  191/191/183 195/195/187 192/192/184
f  196/196/188 203/203/195 193/193/185
f  196/196/188 195/195/187 141/141/136
f  37/37/37 196/196/188 141/141/136
f  115/115/112 117/117/114 204/204/196
f  204/204/196 117/117/114 190/190/182
f  190/190/182 189/189/181 204/204/196
f  177/177/171 26/26/26 200/200/192
f  188/188/180 175/175/169 26/26/26
f  205/205/197 206/206/198 207/207/199
f  208/208/200 209/209/201 210/210/202
f  211/211/203 208/208/200 210/210/202
f  147/147/142 110/110/107 212/212/204
f  213/213/205 214/214/206 118/118/115
f  215/215/207 216/216/208 217/217/209
f  145/145/140 218/218/210 219/219/211
f  176/176/170 180/180/174 179/179/173
f  176/176/170 188/188/180 180/180/174
f  176/176/170 175/175/169 188/188/180
f  220/220/212 158/158/152 221/221/213
f  159/159/153 145/145/140 211/211/203
f  156/156/150 158/158/152 222/222/214
f  190/190/182 207/207/199 191/191/183
f  190/190/182 158/158/152 207/207/199
f  210/210/202 156/156/150 159/159/153
f  218/218/210 178/178/172 201/201/193
f  221/221/213 157/157/151 156/156/150
f  211/211/203 212/212/204 208/208/200
f  136/136/132 10/10/10 212/212/204
f  131/131/127 133/133/129 199/199/191
f  12/12/12 214/214/206 213/213/205
f  223/223/215 116/116/113 133/133/129
f  224/224/216 116/116/113 125/125/122
f  117/117/114 158/158/152 190/190/182
f  117/117/114 116/116/113 223/223/215
f  225/225/217 226/226/218 227/227/219
f  115/115/112 204/204/196 202/202/194
f  194/194/186 203/203/195 202/202/194
f  228/228/220 175/175/169 174/174/168
f  228/228/220 200/200/192 175/175/169
f  200/200/192 26/26/26 175/175/169
f  72/72/70 229/229/221 230/230/222
f  187/187/179 231/231/223 232/232/224
f  118/118/115 216/216/208 213/213/205
f  233/233/225 11/11/11 10/10/10
f  11/11/11 119/119/116 214/214/206
f  233/233/225 234/234/226 235/235/227
f  110/110/107 72/72/70 212/212/204
f  199/199/191 178/178/172 131/131/127
f  223/223/215 132/132/128 117/117/114
f  161/161/155 218/218/210 159/159/153
f  70/70/68 72/72/70 110/110/107
f  71/71/69 70/70/68 236/236/223
f  227/227/219 226/226/218 120/120/117
f  197/197/189 30/30/30 237/237/228
f  200/200/192 176/176/170 179/179/173
f  200/200/192 228/228/220 176/176/170
f  228/228/220 174/174/168 176/176/170
f  202/202/194 204/204/196 194/194/186
f  193/193/185 203/203/195 194/194/186
f  189/189/181 194/194/186 204/204/196
f  238/238/229 125/125/122 115/115/112
f  199/199/191 177/177/171 200/200/192
f  239/239/230 240/240/231 112/112/109
f  240/240/231 124/124/121 112/112/109
f  241/241/232 124/124/121 240/240/231
f  242/242/233 243/243/234 244/244/235
f  88/88/85 245/245/236 246/246/237
f  247/247/75 248/248/238 249/249/239
f  245/245/236 250/250/240 34/34/34
f  23/23/23 121/121/118 109/109/106
f  23/23/23 109/109/106 108/108/105
f  133/133/129 116/116/113 224/224/216
f  251/251/241 50/50/49 252/252/242
f  251/251/241 252/252/242 253/253/243
f  254/254/244 255/255/245 256/256/246
f  254/254/244 256/256/246 171/171/165
f  257/257/247 48/48/47 258/258/248
f  18/18/18 259/259/249 260/260/250
f  18/18/18 260/260/250 16/16/16
f  261/261/251 225/225/217 227/227/219
f  79/79/77 262/262/45 263/263/252
f  79/79/77 263/263/252 137/137/133
f  264/264/253 41/41/41 96/96/93
f  264/264/253 96/96/93 265/265/254
f  49/49/48 83/83/80 86/86/83
f  91/91/88 162/162/156 266/266/255
f  91/91/88 266/266/255 55/55/54
f  16/16/16 92/92/89 2/2/2
f  16/16/16 2/2/2 17/17/17
f  267/267/256 92/92/89 16/16/16
f  20/20/20 91/91/88 75/75/73
f  20/20/20 75/75/73 21/21/21
f  7/7/7 268/268/22 256/256/246
f  7/7/7 256/256/246 269/269/257
f  270/270/258 249/249/239 114/114/111
f  270/270/258 114/114/111 271/271/259
f  49/49/48 25/25/25 24/24/24
f  270/270/258 271/271/259 252/252/242
f  270/270/258 252/252/242 272/272/260
f  270/270/258 272/272/260 247/247/75
f  270/270/258 247/247/75 249/249/239
f  273/273/261 274/274/262 264/264/253
f  273/273/261 264/264/253 275/275/263
f  276/276/261 277/277/240 263/263/252
f  276/276/261 263/263/252 278/278/262
f  40/40/40 39/39/39 35/35/35
f  40/40/40 35/35/35 37/37/37
f  279/279/44 280/280/8 281/281/264
f  279/279/44 281/281/264 42/42/42
f  42/42/42 281/281/264 255/255/245
f  42/42/42 255/255/245 43/43/43
f  51/51/50 3/3/3 267/267/256
f  51/51/50 267/267/256 127/127/78
f  282/282/265 25/25/25 48/48/47
f  47/47/46 25/25/25 282/282/265
f  127/127/78 283/283/76 52/52/51
f  127/127/78 52/52/51 51/51/50
f  57/57/56 53/53/52 163/163/157
f  57/57/56 163/163/157 58/58/57
f  53/53/52 57/57/56 54/54/53
f  56/56/55 76/76/74 54/54/53
f  56/56/55 54/54/53 57/57/56
f  169/169/163 108/108/105 284/284/266
f  169/169/163 284/284/266 285/285/267
f  61/61/60 60/60/59 168/168/162
f  285/285/267 284/284/266 286/286/268
f  285/285/267 286/286/268 184/184/177
f  184/184/177 149/149/143 170/170/164
f  184/184/177 170/170/164 287/287/267
f  165/165/159 288/288/269 289/289/270
f  165/165/159 289/289/270 290/290/62
f  169/169/163 287/287/267 170/170/164
f  291/291/62 292/292/270 293/293/209
f  291/291/62 293/293/209 294/294/217
f  295/295/271 164/164/158 296/296/272
f  295/295/271 296/296/272 297/297/273
f  65/65/63 64/64/62 294/294/217
f  164/164/158 295/295/271 113/113/110
f  98/98/95 295/295/271 297/297/273
f  98/98/95 297/297/273 101/101/98
f  295/295/271 98/98/95 97/97/94
f  295/295/271 97/97/94 106/106/103
f  106/106/103 298/298/274 113/113/110
f  106/106/103 113/113/110 295/295/271
f  69/69/67 1/1/1 299/299/275
f  69/69/67 299/299/275 67/67/65
f  166/166/160 103/103/100 300/300/276
f  166/166/160 300/300/276 167/167/161
f  103/103/100 166/166/160 301/301/277
f  16/16/16 260/260/250 302/302/278
f  16/16/16 302/302/278 267/267/256
f  197/197/189 31/31/31 30/30/30
f  259/259/249 18/18/18 62/62/61
f  259/259/249 62/62/61 303/303/279
f  114/114/111 249/249/239 248/248/238
f  114/114/111 248/248/238 112/112/109
f  4/4/4 304/304/280 305/305/281
f  4/4/4 305/305/281 83/83/80
f  306/306/87 307/307/86 137/137/133
f  126/126/123 74/74/72 76/76/74
f  126/126/123 76/76/74 56/56/55
f  94/94/91 93/93/90 258/258/248
f  94/94/91 258/258/248 308/308/282
f  309/309/283 123/123/120 310/310/284
f  309/309/283 310/310/284 261/261/251
f  86/86/83 94/94/91 308/308/282
f  33/33/33 310/310/284 123/123/120
f  130/130/126 129/129/125 154/154/148
f  130/130/126 154/154/148 311/311/285
f  311/311/285 107/107/104 172/172/166
f  311/311/285 172/172/166 130/130/126
f  87/87/84 162/162/156 91/91/88
f  87/87/84 91/91/88 20/20/20
f  131/131/127 178/178/172 218/218/210
f  312/312/286 121/121/118 313/313/287
f  24/24/24 4/4/4 83/83/80
f  24/24/24 83/83/80 49/49/48
f  268/268/22 169/169/163 171/171/165
f  268/268/22 171/171/165 256/256/246
f  4/4/4 24/24/24 5/5/5
f  23/23/23 108/108/105 169/169/163
f  23/23/23 169/169/163 22/22/22
f  269/269/257 281/281/264 280/280/8
f  269/269/257 280/280/8 314/314/7
f  255/255/245 281/281/264 269/269/257
f  255/255/245 269/269/257 256/256/246
f  39/39/39 282/282/265 48/48/47
f  39/39/39 48/48/47 257/257/247
f  38/38/38 47/47/46 282/282/265
f  38/38/38 282/282/265 39/39/39
f  315/315/240 316/316/261 317/317/263
f  315/315/240 317/317/263 318/318/34
f  265/265/254 319/319/288 275/275/263
f  265/265/254 275/275/263 264/264/253
f  306/306/87 137/137/133 263/263/252
f  306/306/87 263/263/252 277/277/240
f  56/56/55 28/28/28 27/27/27
f  56/56/55 27/27/27 126/126/123
f  271/271/259 298/298/274 253/253/243
f  271/271/259 253/253/243 252/252/242
f  113/113/110 298/298/274 271/271/259
f  113/113/110 271/271/259 114/114/111
f  272/272/260 52/52/51 283/283/76
f  272/272/260 283/283/76 247/247/75
f  252/252/242 50/50/49 52/52/51
f  252/252/242 52/52/51 272/272/260
f  91/91/88 54/54/53 76/76/74
f  91/91/88 76/76/74 75/75/73
f  278/278/262 263/263/252 262/262/45
f  278/278/262 262/262/45 320/320/42
f  41/41/41 264/264/253 274/274/262
f  41/41/41 274/274/262 42/42/42
f  28/28/28 56/56/55 58/58/57
f  28/28/28 58/58/57 31/31/31
f  267/267/256 3/3/3 92/92/89
f  29/29/29 31/31/31 58/58/57
f  29/29/29 58/58/57 163/163/157
f  51/51/50 299/299/275 1/1/1
f  51/51/50 1/1/1 3/3/3
f  127/127/78 267/267/256 302/302/278
f  50/50/49 251/251/241 299/299/275
f  50/50/49 299/299/275 51/51/50
f  217/217/209 321/321/270 142/142/137
f  217/217/209 142/142/137 322/322/289
f  43/43/43 255/255/245 254/254/244
f  17/17/17 62/62/61 18/18/18
f  184/184/177 286/286/268 153/153/147
f  288/288/269 151/151/145 183/183/137
f  288/288/269 183/183/137 289/289/270
f  301/301/277 170/170/164 149/149/143
f  301/301/277 149/149/143 103/103/100
f  323/323/290 69/69/67 66/66/64
f  105/105/102 300/300/276 103/103/100
f  171/171/165 170/170/164 301/301/277
f  171/171/165 301/301/277 254/254/244
f  253/253/243 298/298/274 299/299/275
f  253/253/243 299/299/275 251/251/241
f  68/68/66 67/67/65 106/106/103
f  167/167/161 300/300/276 288/288/269
f  167/167/161 288/288/269 165/165/159
f  168/168/162 2/2/2 1/1/1
f  296/296/272 134/134/130 324/324/291
f  265/265/254 96/96/93 166/166/160
f  265/265/254 166/166/160 165/165/159
f  284/284/266 311/311/285 154/154/148
f  284/284/266 154/154/148 286/286/268
f  187/187/179 101/101/98 297/297/273
f  187/187/179 297/297/273 325/325/292
f  23/23/23 7/7/7 313/313/287
f  23/23/23 313/313/287 121/121/118
f  9/9/9 313/313/287 7/7/7
f  48/48/47 49/49/48 86/86/83
f  48/48/47 86/86/83 308/308/282
f  84/84/81 83/83/80 305/305/281
f  137/137/133 307/307/86 326/326/234
f  238/238/229 257/257/247 125/125/122
f  261/261/251 310/310/284 327/327/63
f  261/261/251 327/327/63 225/225/217
f  308/308/282 258/258/248 48/48/47
f  262/262/45 79/79/77 328/328/44
f  235/235/227 227/227/219 120/120/117
f  235/235/227 120/120/117 119/119/116
f  89/89/86 88/88/85 244/244/235
f  89/89/86 244/244/235 243/243/234
f  12/12/12 11/11/11 214/214/206
f  257/257/247 258/258/248 93/93/90
f  257/257/247 93/93/90 125/125/122
f  248/248/238 243/243/234 242/242/233
f  242/242/233 239/239/230 112/112/109
f  112/112/109 248/248/238 242/242/233
f  173/173/167 122/122/119 121/121/118
f  173/173/167 121/121/118 312/312/286
f  9/9/9 302/302/278 260/260/250
f  9/9/9 260/260/250 313/313/287
f  313/313/287 260/260/250 259/259/249
f  313/313/287 259/259/249 312/312/286
f  304/304/280 73/73/71 21/21/21
f  304/304/280 21/21/21 305/305/281
f  305/305/281 21/21/21 75/75/73
f  305/305/281 75/75/73 84/84/81
f  326/326/234 329/329/238 77/77/75
f  326/326/234 77/77/75 137/137/133
f  95/95/92 177/177/171 224/224/216
f  95/95/92 224/224/216 125/125/122
f  94/94/91 85/85/82 74/74/72
f  94/94/91 74/74/72 126/126/123
f  123/123/120 309/309/283 296/296/272
f  123/123/120 296/296/272 164/164/158
f  79/79/77 80/80/78 328/328/44
f  127/127/78 302/302/278 82/82/79
f  130/130/126 172/172/166 303/303/279
f  130/130/126 303/303/279 128/128/124
f  312/312/286 259/259/249 303/303/279
f  312/312/286 303/303/279 173/173/167
f  161/161/155 160/160/154 132/132/128
f  296/296/272 330/330/283 135/135/131
f  85/85/82 84/84/81 75/75/73
f  85/85/82 75/75/73 74/74/72
f  302/302/278 9/9/9 82/82/79
f  331/331/293 6/6/6 152/152/146
f  331/331/293 152/152/146 182/182/176
f  73/73/71 304/304/280 331/331/293
f  66/66/64 55/55/54 266/266/255
f  66/66/64 266/266/255 323/323/290
f  182/182/176 181/181/175 331/331/293
f  140/140/102 332/332/101 14/14/14
f  333/333/294 29/29/29 97/97/94
f  333/333/294 97/97/94 100/100/97
f  334/334/38 335/335/138 183/183/137
f  334/334/38 183/183/137 150/150/144
f  139/139/135 61/61/60 87/87/84
f  139/139/135 87/87/84 19/19/19
f  185/185/149 153/153/147 5/5/5
f  24/24/24 13/13/13 15/15/15
f  24/24/24 15/15/15 155/155/149
f  141/141/136 143/143/138 40/40/40
f  141/141/136 40/40/40 37/37/37
f  257/257/247 238/238/229 35/35/35
f  257/257/247 35/35/35 39/39/39
f  30/30/30 29/29/29 333/333/294
f  53/53/52 55/55/54 163/163/157
f  304/304/280 4/4/4 6/6/6
f  304/304/280 6/6/6 331/331/293
f  181/181/175 138/138/134 73/73/71
f  181/181/175 73/73/71 331/331/293
f  144/144/139 323/323/290 266/266/255
f  144/144/139 266/266/255 162/162/156
f  19/19/19 73/73/71 138/138/134
f  334/334/38 150/150/144 140/140/102
f  334/334/38 140/140/102 47/47/46
f  15/15/15 14/14/14 336/336/101
f  153/153/147 152/152/146 6/6/6
f  153/153/147 6/6/6 5/5/5
f  221/221/213 158/158/152 157/157/151
f  32/32/32 327/327/63 310/310/284
f  32/32/32 310/310/284 33/33/33
f  97/97/94 29/29/29 163/163/157
f  303/303/279 172/172/166 173/173/167
f  108/108/105 107/107/104 311/311/285
f  108/108/105 311/311/285 284/284/266
f  298/298/274 106/106/103 67/67/65
f  298/298/274 67/67/65 299/299/275
f  303/303/279 62/62/61 59/59/58
f  303/303/279 59/59/58 128/128/124
f  172/172/166 107/107/104 109/109/106
f  172/172/166 109/109/106 122/122/119
f  43/43/43 254/254/244 301/301/277
f  43/43/43 301/301/277 166/166/160
f  319/319/288 265/265/254 165/165/159
f  319/319/288 165/165/159 290/290/62
f  96/96/93 43/43/43 166/166/160
f  60/60/59 17/17/17 2/2/2
f  60/60/59 2/2/2 168/168/162
f  63/63/32 337/337/288 64/64/62
f  151/151/145 288/288/269 300/300/276
f  151/151/145 300/300/276 105/105/102
f  62/62/61 17/17/17 60/60/59
f  154/154/148 153/153/147 286/286/268
f  144/144/139 168/168/162 69/69/67
f  144/144/139 69/69/67 323/323/290
f  149/149/143 104/104/101 103/103/100
f  128/128/124 59/59/58 139/139/135
f  128/128/124 139/139/135 138/138/134
f  147/147/142 146/146/141 110/110/107
f  168/168/162 144/144/139 61/61/60
f  181/181/175 129/129/125 128/128/124
f  181/181/175 128/128/124 138/138/134
f  182/182/176 152/152/146 154/154/148
f  182/182/176 154/154/148 129/129/125
f  155/155/149 338/338/15 339/339/143
f  155/155/149 339/339/143 340/340/177
f  341/341/295 12/12/12 213/213/205
f  232/232/224 342/342/296 343/343/297
f  205/205/197 215/215/207 206/206/198
f  100/100/97 97/97/94 99/99/96
f  141/141/136 322/322/289 142/142/137
f  197/197/189 180/180/174 188/188/180
f  197/197/189 188/188/180 31/31/31
f  209/209/201 12/12/12 341/341/295
f  196/196/188 36/36/36 203/203/195
f  198/198/190 197/197/189 237/237/228
f  198/198/190 237/237/228 201/201/193
f  36/36/36 35/35/35 238/238/229
f  36/36/36 238/238/229 115/115/112
f  237/237/228 344/344/298 219/219/211
f  237/237/228 219/219/211 201/201/193
f  189/189/181 191/191/183 192/192/184
f  220/220/212 205/205/197 207/207/199
f  213/213/205 205/205/197 220/220/212
f  186/186/178 187/187/179 232/232/224
f  342/342/296 146/146/141 343/343/297
f  341/341/295 213/213/205 221/221/213
f  211/211/203 147/147/142 212/212/204
f  322/322/289 215/215/207 217/217/209
f  219/219/211 218/218/210 201/201/193
f  343/343/297 145/145/140 219/219/211
f  343/343/297 146/146/141 145/145/140
f  344/344/298 232/232/224 343/343/297
f  344/344/298 343/343/297 219/219/211
f  141/141/136 195/195/187 206/206/198
f  232/232/224 344/344/298 186/186/178
f  186/186/178 237/237/228 30/30/30
f  186/186/178 30/30/30 333/333/294
f  237/237/228 186/186/178 344/344/298
f  215/215/207 322/322/289 141/141/136
f  215/215/207 141/141/136 206/206/198
f  159/159/153 156/156/150 160/160/154
f  102/102/99 186/186/178 333/333/294
f  102/102/99 333/333/294 100/100/97
f  220/220/212 221/221/213 213/213/205
f  210/210/202 341/341/295 156/156/150
f  209/209/201 341/341/295 210/210/202
f  211/211/203 145/145/140 147/147/142
f  195/195/187 191/191/183 207/207/199
f  195/195/187 207/207/199 206/206/198
f  158/158/152 220/220/212 207/207/199
f  10/10/10 209/209/201 208/208/200
f  10/10/10 208/208/200 212/212/204
f  341/341/295 221/221/213 156/156/150
f  211/211/203 210/210/202 159/159/153
f  224/224/216 177/177/171 199/199/191
f  224/224/216 199/199/191 133/133/129
f  134/134/130 136/136/132 230/230/222
f  134/134/130 230/230/222 229/229/221
f  134/134/130 296/296/272 135/135/131
f  234/234/226 345/345/283 261/261/251
f  234/234/226 261/261/251 235/235/227
f  230/230/222 136/136/132 212/212/204
f  161/161/155 132/132/128 131/131/127
f  132/132/128 223/223/215 133/133/129
f  297/297/273 296/296/272 324/324/291
f  297/297/273 324/324/291 325/325/292
f  216/216/208 118/118/115 120/120/117
f  118/118/115 214/214/206 119/119/116
f  226/226/218 225/225/217 217/217/209
f  111/111/108 146/146/141 342/342/296
f  111/111/108 342/342/296 70/70/68
f  136/136/132 135/135/131 233/233/225
f  234/234/226 233/233/225 135/135/131
f  229/229/221 324/324/291 134/134/130
f  72/72/70 324/324/291 229/229/221
f  111/111/108 110/110/107 146/146/141
f  70/70/68 342/342/296 232/232/224
f  70/70/68 232/232/224 236/236/223
f  222/222/214 132/132/128 160/160/154
f  222/222/214 160/160/154 156/156/150
f  216/216/208 215/215/207 205/205/197
f  213/213/205 216/216/208 205/205/197
f  98/98/95 101/101/98 100/100/97
f  98/98/95 100/100/97 99/99/96
f  136/136/132 233/233/225 10/10/10
f  71/71/69 325/325/292 324/324/291
f  71/71/69 324/324/291 72/72/70
f  11/11/11 233/233/225 119/119/116
f  119/119/116 233/233/225 235/235/227
f  212/212/204 72/72/70 230/230/222
f  158/158/152 117/117/114 222/222/214
f  117/117/114 132/132/128 222/222/214
f  159/159/153 218/218/210 145/145/140
f  161/161/155 131/131/127 218/218/210
f  234/234/226 135/135/131 330/330/283
f  231/231/223 187/187/179 325/325/292
f  231/231/223 325/325/292 71/71/69
f  241/241/232 246/246/237 33/33/33
f  241/241/232 33/33/33 124/124/121
f  217/217/209 216/216/208 226/226/218
f  120/120/117 226/226/218 216/216/208
f  196/196/188 37/37/37 36/36/36
f  209/209/201 10/10/10 12/12/12
f  235/235/227 261/261/251 227/227/219
f  115/115/112 125/125/122 116/116/113
f  102/102/99 101/101/98 187/187/179
f  241/241/232 240/240/231 239/239/230
f  241/241/232 239/239/230 88/88/85
f  246/246/237 241/241/232 88/88/85
f  34/34/34 33/33/33 246/246/237
f  318/318/34 317/317/263 337/337/288
f  318/318/34 337/337/288 63/63/32
f  239/239/230 244/244/235 88/88/85
f  239/239/230 242/242/233 244/244/235
f  245/245/236 88/88/85 90/90/87
f  245/245/236 34/34/34 246/246/237
f  90/90/87 250/250/240 245/245/236

# Mesh 'dingus-1' with 16 faces
g dingus-1
usemtl whiskers
f  346/346/299 347/347/300 348/348/301
f  346/346/299 348/348/301 349/349/302
f  350/350/303 346/346/299 349/349/302
f  350/350/303 349/349/302 351/351/304
f  352/352/305 353/353/306 346/346/299
f  352/352/305 346/346/299 350/350/303
f  353/353/306 354/354/307 347/347/300
f  353/353/306 347/347/300 346/346/299
f  355/355/308 356/356/309 357/357/310
f  355/355/308 357/357/310 358/358/311
f  359/359/312 360/360/313 356/356/309
f  359/359/312 356/356/309 355/355/308
f  361/361/314 359/359/312 355/355/308
f  361/361/314 355/355/308 362/362/315
f  355/355/308 358/358/311 363/363/316
f  362/362/315 355/355/308 363/363/316

