# File produced by Open Asset Import Library (http://www.assimp.sf.net)
# (assimp v6.0.3476479118)

mtllib result.mtl

# 597 vertex positions
v 55.619751 61.1865921 54.647049
v 52.6132736 69.2242279 -11.8570404
v 19.6047325 95.8880844 -9.80735111
v 20.7250004 108.484459 34.9864616
v 24.6459389 113.872749 96.4248657
v 66.142395 79.1581192 93.7895813
v 20.0455246 92.7512512 141.062759
v 60.975235 53.5236015 133.561722
v 33.1587944 48.0811653 189.32518
v 62.95784 11.5169315 165.726593
v 51.4733391 -12.352129 227.206955
v 63.2636528 -24.8865337 220.606537
v 53.1978531 74.153389 -39.1461182
v 19.8225594 97.6620026 -40.6101646
v 50.27491 79.070343 -67.8951416
v 18.7334442 111.363319 -66.4310913
v 18.7334442 111.363319 -66.4310913
v 50.27491 79.070343 -67.8951416
v 39.1676445 79.2890244 -89.5257111
v 14.5946331 123.832672 -89.7351761
v 38.0494576 136.358704 -90.3581848
v 42.0592117 132.589462 -90.7609406
v 40.3421593 133.609589 -105.706528
v 37.4096184 136.248413 -105.303795
v 10.673687 122.953903 -114.561279
v 28.6450081 87.4141006 -114.351852
v 29.0593319 101.400871 -140.569702
v 11.6030998 116.152054 -140.792664
v 19.2661266 94.0453262 -173.804825
v 11.7168484 108.396454 -173.581879
v 15.338088 87.3618469 -195.32959
v 9.32800007 96.278389 -194.660583
v 13.2805367 84.8880005 -208.333755
v 8.07668304 92.6063538 -207.77626
v 5.71811581 85.9365082 -218.436005
v 4.90834665 88.5218124 -218.948898
v 53.1978569 22.895834 -39.1461487
v 50.27491 36.0115128 -68.1879883
v 39.1676445 79.2890244 -89.5257111
v 39.1676369 47.4132233 -91.4668274
v 28.6450062 69.8401642 -116.292908
v 31.1392536 69.6351013 -140.215485
v 24.9839802 67.4873734 -174.159073
v 17.4850368 69.4362183 -196.392258
v 15.1394844 71.2090073 -209.219284
v 5.71811438 80.5244217 -217.621292
v 72.4243469 -46.7842064 169.034119
v 69.9687729 10.2998447 167.824799
v 63.0790024 -43.3998833 220.397934
v 72.1690598 -22.3040409 134.148254
v 74.5451279 50.4110298 138.081268
v 86.2593765 1.19288039 101.106995
v 87.2339554 72.9835052 99.5056305
v 87.5316925 2.31870389 41.4705963
v 83.4946976 52.792057 60.1923103
v 55.6197433 11.7522535 32.9536095
v 52.6132736 11.5594912 -11.8570251
v 49.8954239 -105.200806 -98.490242
v 16.7023335 -105.200813 -100.00061
v 15.7647152 -105.200813 -104.588799
v 47.1340294 -105.200775 -103.886063
v 32.9505119 -105.20076 -109.758148
v 23.8798656 -105.20076 -110.226479
v 13.2989092 -0.12287131 -89.9103699
v 9.46103573 43.3408089 -118.484474
v 10.240201 43.7868347 -143.270233
v 10.3355827 46.3824615 -173.111938
v 8.33283234 53.8055267 -188.373032
v 7.28378105 56.6124763 -206.450943
v 4.51809216 71.2699356 -216.794083
v 37.368454 -79.6277313 185.342422
v 43.2715149 -72.2191467 214.519531
v 27.8844414 -96.790947 137.547485
v 45.4471703 -70.3448181 66.4458084
v 47.2853508 -62.4911461 35.0606232
v 18.8850441 -53.9336052 29.4697266
v 17.8642406 -38.7855949 -8.34329891
v 37.6651192 -105.200851 -84.95224
v 25.4806557 -105.200851 -85.4957886
v 33.4103889 89.3866882 -94.1953888
v 19.8356915 121.481133 -92.6131592
v 26.9340572 92.2645798 -109.313004
v 33.4103889 89.3866882 -94.1953888
v 28.6450081 87.4141006 -114.351852
v 10.673687 122.953903 -114.561279
v 18.6182671 121.277649 -111.586983
v 26.9340572 92.2645798 -109.313004
v 34.9216576 113.041252 -84.204155
v 31.6245823 128.794281 -85.9636993
v 33.5097885 113.880043 -112.579765
v 34.9216576 113.041252 -84.204155
v 31.098484 128.703568 -114.339256
v 33.5097885 113.880043 -112.579765
v 31.6245823 128.794281 -85.9636993
v 34.9216576 113.041252 -84.204155
v 40.3421593 133.609589 -105.706528
v 42.0592117 132.589462 -90.7609406
v 33.5097885 113.880043 -112.579765
v 31.098484 128.703568 -114.339256
v 38.0494576 136.358704 -90.3581848
v 37.4096184 136.248413 -105.303795
v 18.0627174 -29.143095 -39.1460876
v 17.0702553 -16.0274143 -68.1879196
v 17.0702553 -44.1137047 -67.0560303
v 18.0627213 -50.5655365 -50.8099327
v 53.1978531 -45.031147 -49.1309814
v 50.27491 -38.5794067 -65.3770676
v 35.2615471 -36.727253 -79.4063797
v 25.6601982 -38.1863899 -80.5252457
v 40.2519875 -51.8091507 -34.0824242
v 27.3546524 -53.8007774 -34.686676
v 25.7572269 -91.3877182 -90.5670547
v 26.2724094 -94.736824 -82.1337357
v 44.5108948 -91.8639603 -81.262207
v 42.9936028 -88.5148773 -89.6955032
v 35.2002335 -87.5534897 -96.9779663
v 30.2162189 -88.3108597 -97.558815
v 37.7907486 -95.3823853 -73.4505844
v 31.0957985 -96.4162369 -73.7642136
v 15.7647171 -100.247787 -104.588814
v 16.7023277 -100.247787 -100.00061
v 49.8954277 -100.24778 -98.4902039
v 47.1340256 -100.247742 -103.886063
v 32.9505119 -100.247734 -109.758156
v 23.8798656 -100.247742 -110.226486
v 37.6651192 -100.247826 -84.9522858
v 25.4806576 -100.247833 -85.4958191
v 53.8146973 -102.337234 -110.919617
v 54.592453 -102.337234 -109.076691
v 54.5924416 -105.699646 -109.076721
v 53.8146896 -105.699638 -110.919617
v 37.1233406 -102.337265 -125.692528
v 41.1181488 -102.337273 -123.686935
v 41.1181488 -105.699692 -123.686958
v 37.1233406 -105.699684 -125.692513
v 6.10492849 -102.337357 -122.326881
v 8.39056492 -102.337318 -124.252411
v 8.39056492 -105.699707 -124.252403
v 6.10492945 -105.699753 -122.326874
v 22.9772739 -102.337318 -129.384964
v 25.5320301 -102.337311 -129.225006
v 25.5320301 -105.699707 -129.225006
v 22.9772739 -105.699707 -129.384964
v 34.6660271 -87.3726501 196.300186
v 12.4739704 -92.8520203 135.626556
v 22.4578724 -63.5821419 60.3090782
v 25.9477787 -100.079605 61.4654388
v 23.548233 -101.474274 52.2029114
v 42.6221619 -101.474319 55.9578056
v 41.3876228 -100.11216 65.5869217
v 22.4161129 -77.2366333 49.5307732
v 25.1005058 -80.6916809 62.2172394
v 43.7542839 -81.0667496 52.5737305
v 42.3731956 -85.7129898 66.4750671
v 25.9477787 -89.0043869 61.0855103
v 23.548233 -87.53508 50.0787926
v 27.5784092 -98.4768143 19.0899429
v 32.0186501 -98.8574142 19.9640484
v 31.6302681 -101.746948 19.8875942
v 27.5784092 -101.746948 19.0899391
v 42.6221619 -89.8495178 53.4909821
v 41.3876228 -93.467392 66.5808258
v 37.345108 -95.8900223 44.7806625
v 42.6221619 -96.4709244 45.8195038
v 42.6221619 -101.499481 45.8195038
v 30.4254379 -101.499458 43.418457
v 23.548233 -101.499458 42.0646019
v 23.548233 -94.3712845 42.0646019
v 34.6660271 -87.3726501 196.300186
v 43.2715149 -72.2191467 214.519531
v 86.6832886 -74.1069946 244.892426
v 76.9025345 -95.7391586 225.814926
v 138.208084 -96.1321487 239.291809
v 141.744278 -81.3525772 243.616562
v 199.422684 -85.3514328 233.821472
v 196.255203 -95.1322937 231.66423
v 243.195404 -96.4180832 168.023666
v 245.823929 -91.2542191 168.347961
v 273.647461 -115.892632 52.6535492
v 272.553345 -118.025658 52.5186462
v -4.11156225 -72.2874985 92.7773895
v -7.51096566e-16 -61.5602684 46.5674744
v -9.34236717 -99.4237289 141.432007
v 10.9590216 -105.61808 194.727661
v 72.1719131 -101.424171 233.33345
v 10.9590216 -105.61808 194.727661
v 201.137619 -100.65374 235.035843
v 143.669006 -100.141296 246.061172
v 273.647522 -120.974663 52.6535835
v 247.239273 -102.648438 168.522797
v 247.239273 -92.1063538 168.52272
v 143.654297 -81.2040558 245.986832
v 201.130966 -85.7900314 235.002029
v 43.304039 -64.2279205 230.637375
v 85.472847 -74.6313858 248.070343
v 47.319912 -45.339447 234.346252
v 43.304039 -64.2279205 230.637375
v 47.5045738 -24.8865337 234.554871
v 45.6011505 -7.10502958 232.404373
v 13.498044 53.3644028 200.118408
v -4.7786622 98.1771469 144.434708
v -1.0365205e-16 119.119865 96.4248657
v -1.09280771e-15 113.731552 34.9864616
v 2.42413868e-16 101.135185 -9.80735683
v -3.76251654e-15 102.909096 -40.6101646
v -3.00610977e-15 116.610405 -66.4310989
v -9.38414567e-17 127.101242 -89.7351532
v -3.00610977e-15 116.610405 -66.4310989
v 7.25440097e-16 126.222496 -114.561264
v 1.14621981e-15 121.399162 -140.792664
v 7.25440097e-16 126.222496 -114.561264
v 4.15101286e-15 110.765068 -173.581833
v 2.57640169e-15 98.6470261 -194.660583
v -8.70467281e-21 93.4997177 -207.776245
v 1.74091711e-20 89.3437424 -218.948898
v -1.02266004e-05 85.9365082 -220.855804
v -1.02266004e-05 80.5244293 -220.041092
v -1.02266004e-05 68.5517349 -216.794083
v -1.02266004e-05 53.8942795 -206.450943
v -1.02266004e-05 50.0534554 -188.373032
v -1.02266004e-05 39.904377 -173.111938
v -1.02266004e-05 37.3087463 -143.270233
v -1.02266004e-05 36.8627243 -118.484474
v -1.02266004e-05 -7.16391706 -89.9103775
v 1.65561621e-15 -23.0684624 -68.1879578
v 5.017982e-15 -36.1841354 -39.1460876
v 8.72669392e-17 -45.8266602 -8.34330559
v -55.619751 61.1865921 54.647049
v -20.7250004 108.484459 34.9864616
v -19.6047325 95.8880844 -9.80735111
v -52.6132736 69.2242279 -11.8570404
v -66.142395 79.1581192 93.7895813
v -24.6459389 113.872749 96.4248657
v -72.5820999 53.5236015 155.152664
v -29.9197273 92.7512512 147.761017
v -43.0950432 11.5169315 222.427444
v -6.07769299 48.0811653 210.9702
v 31.7454815 -24.8865337 248.503174
v 39.7290573 -12.352129 237.601791
v -19.8225594 97.6620026 -40.6101646
v -53.1978531 74.153389 -39.1461182
v -18.7334442 111.363319 -66.4310913
v -50.27491 79.070343 -67.8951416
v -18.7334442 111.363319 -66.4310913
v -14.5946331 123.832672 -89.7351761
v -39.1676445 79.2890244 -89.5257111
v -50.27491 79.070343 -67.8951416
v -38.0494576 136.358704 -90.3581848
v -37.4096184 136.248413 -105.303795
v -40.3421593 133.609589 -105.706528
v -42.0592117 132.589462 -90.7609406
v -10.673687 122.953903 -114.561279
v -11.6030998 116.152054 -140.792664
v -29.0593319 101.400871 -140.569702
v -28.6450081 87.4141006 -114.351852
v -11.7168484 108.396454 -173.581879
v -19.2661266 94.0453262 -173.804825
v -9.32800007 96.278389 -194.660583
v -15.338088 87.3618469 -195.32959
v -8.07668304 92.6063538 -207.77626
v -13.2805367 84.8880005 -208.333755
v -4.90834665 88.5218124 -218.948898
v -5.71811581 85.9365082 -218.436005
v -50.27491 36.0115128 -68.1879883
v -53.1978569 22.895834 -39.1461487
v -39.1676445 79.2890244 -89.5257111
v -39.1676369 47.4132233 -91.4668274
v -28.6450062 69.8401642 -116.292908
v -31.1392536 69.6351013 -140.215485
v -24.9839802 67.4873734 -174.159073
v -17.4850368 69.4362183 -196.392258
v -15.1394844 71.2090073 -209.219284
v -5.71811438 80.5244217 -217.621292
v -40.7327728 -47.2306595 236.223938
v 31.5608463 -46.3267899 248.294556
v -45.1253662 10.2998447 229.531418
v -84.1594391 -22.3040409 174.591782
v -83.8472061 50.4110298 162.39595
v -89.4609299 1.19288039 104.473251
v -87.2339554 72.9835052 99.5056305
v -87.5316925 2.31870389 41.4705963
v -83.4946976 52.792057 60.1923103
v -55.6197433 11.7522535 32.9536095
v -52.6132736 11.5594912 -11.8570251
v -49.8954239 -105.200806 -98.490242
v -47.1340294 -105.200775 -103.886063
v -15.7647152 -105.200813 -104.588799
v -16.7023335 -105.200813 -100.00061
v -32.9505119 -105.20076 -109.758148
v -23.8798656 -105.20076 -110.226479
v -9.46103573 43.3408089 -118.484474
v -13.2989092 -0.12287131 -89.9103699
v -10.240201 43.7868347 -143.270233
v -10.3355827 46.3824615 -173.111938
v -8.33283234 53.8055267 -188.373032
v -7.28378105 56.6124763 -206.450943
v -4.51809216 71.2699356 -216.794083
v -9.06615925 -86.5280914 213.484833
v 28.6012058 -73.1768417 229.108246
v -44.1240654 -96.790947 157.043015
v -45.4471703 -70.3448181 66.4458084
v -47.2853508 -62.4911461 35.0606232
v -18.8850441 -53.9336052 29.4697266
v -17.8642406 -38.7855949 -8.34329891
v -25.4806557 -105.200851 -85.4957886
v -37.6651192 -105.200851 -84.95224
v -19.8356915 121.481133 -92.6131592
v -33.4103889 89.3866882 -94.1953888
v -33.4103889 89.3866882 -94.1953888
v -26.9340572 92.2645798 -109.313004
v -28.6450081 87.4141006 -114.351852
v -26.9340572 92.2645798 -109.313004
v -18.6182671 121.277649 -111.586983
v -10.673687 122.953903 -114.561279
v -31.6245823 128.794281 -85.9636993
v -34.9216576 113.041252 -84.204155
v -34.9216576 113.041252 -84.204155
v -33.5097885 113.880043 -112.579765
v -33.5097885 113.880043 -112.579765
v -31.098484 128.703568 -114.339256
v -31.6245823 128.794281 -85.9636993
v -34.9216576 113.041252 -84.204155
v -42.0592117 132.589462 -90.7609406
v -40.3421593 133.609589 -105.706528
v -33.5097885 113.880043 -112.579765
v -31.098484 128.703568 -114.339256
v -37.4096184 136.248413 -105.303795
v -38.0494576 136.358704 -90.3581848
v -18.0627174 -29.143095 -39.1460876
v -18.0627213 -50.5655365 -50.8099327
v -17.0702553 -44.1137047 -67.0560303
v -17.0702553 -16.0274143 -68.1879196
v -50.27491 -38.5794067 -65.3770676
v -53.1978531 -45.031147 -49.1309814
v -35.2615471 -36.727253 -79.4063797
v -25.6601982 -38.1863899 -80.5252457
v -40.2519875 -51.8091507 -34.0824242
v -27.3546524 -53.8007774 -34.686676
v -26.2724094 -94.736824 -82.1337357
v -25.7572269 -91.3877182 -90.5670547
v -42.9936028 -88.5148773 -89.6955032
v -44.5108948 -91.8639603 -81.262207
v -35.2002335 -87.5534897 -96.9779663
v -30.2162189 -88.3108597 -97.558815
v -37.7907486 -95.3823853 -73.4505844
v -31.0957985 -96.4162369 -73.7642136
v -16.7023277 -100.247787 -100.00061
v -15.7647171 -100.247787 -104.588814
v -47.1340256 -100.247742 -103.886063
v -49.8954277 -100.24778 -98.4902039
v -32.9505119 -100.247734 -109.758156
v -23.8798656 -100.247742 -110.226486
v -37.6651192 -100.247826 -84.9522858
v -25.4806576 -100.247833 -85.4958191
v -53.8146973 -102.337234 -110.919601
v -53.8146896 -105.699638 -110.919617
v -54.592453 -105.699646 -109.076714
v -54.592453 -102.337234 -109.076691
v -37.1233521 -102.337273 -125.692513
v -37.1233521 -105.699684 -125.692505
v -41.1181564 -105.699692 -123.686958
v -41.1181526 -102.337296 -123.686935
v -6.10490942 -102.337341 -122.326881
v -6.10491085 -105.699753 -122.326866
v -8.39054585 -105.699707 -124.252388
v -8.39054585 -102.337311 -124.252403
v -22.9772873 -102.337318 -129.384949
v -22.9772873 -105.699707 -129.384949
v -25.5320415 -105.699707 -129.225006
v -25.5320454 -102.337311 -129.225006
v 3.80373001 -93.1467285 212.476807
v -31.8505554 -92.8520203 147.689301
v -22.4578724 -63.5821419 60.3090782
v -25.9477787 -100.079605 61.4654388
v -41.3876228 -100.11216 65.5869217
v -42.6221619 -101.474319 55.9578056
v -23.548233 -101.474274 52.2029114
v -25.1004963 -80.6916809 62.2172394
v -22.4161129 -77.2366333 49.5307732
v -43.7542839 -81.0667496 52.5737305
v -42.373188 -85.7129898 66.4750671
v -25.9477787 -89.0043869 61.0855103
v -23.548233 -87.53508 50.0787926
v -38.9856529 -99.3774185 21.3355789
v -39.4633522 -102.081734 21.429615
v -43.621994 -102.081734 22.2482872
v -43.621994 -99.7748184 22.2482872
v -42.6221619 -89.8495178 53.4909821
v -41.3876228 -93.467392 66.5808258
v -23.548233 -94.3712845 42.0646019
v -27.7321568 -94.8318481 42.8882523
v -42.6221619 -96.4709244 45.8195038
v -42.6221619 -101.499481 45.8195038
v -35.5637131 -101.499481 44.4299736
v -23.548233 -101.499458 42.0646019
v 3.80373001 -93.1467285 212.476807
v 68.1885757 -97.0125275 241.541031
v 84.2624359 -75.1542969 251.248306
v 28.6012058 -73.1768417 229.108246
v 149.129868 -95.5162506 252.830566
v 206.019989 -97.8572311 238.407349
v 202.839233 -86.2444229 236.182526
v 145.564331 -81.0972366 248.357162
v 251.283051 -101.477425 169.021698
v 274.741516 -118.025658 52.7886887
v 248.654633 -92.9531555 168.697342
v -9.38414567e-17 127.101242 -89.7351532
v -3.00610977e-15 116.610405 -66.4310989
v 7.25440097e-16 126.222496 -114.561264
v 47.1340256 -100.247742 -103.886063
v 49.8954277 -100.24778 -98.4902039
v 54.592453 -102.337234 -109.076691
v 53.8146973 -102.337234 -110.919617
v 54.5924416 -105.699646 -109.076721
v 54.592453 -102.337234 -109.076691
v 53.8146896 -105.699638 -110.919617
v 54.5924416 -105.699646 -109.076721
v 47.1340294 -105.200775 -103.886063
v 47.1340256 -100.247742 -103.886063
v 53.8146973 -102.337234 -110.919617
v 53.8146896 -105.699638 -110.919617
v 32.9505119 -100.247734 -109.758156
v 47.1340256 -100.247742 -103.886063
v 41.1181488 -102.337273 -123.686935
v 37.1233406 -102.337265 -125.692528
v 47.1340256 -100.247742 -103.886063
v 47.1340294 -105.200775 -103.886063
v 41.1181488 -105.699692 -123.686958
v 41.1181488 -102.337273 -123.686935
v 37.1233406 -105.699684 -125.692513
v 41.1181488 -105.699692 -123.686958
v 32.9505119 -105.20076 -109.758148
v 32.9505119 -100.247734 -109.758156
v 37.1233406 -102.337265 -125.692528
v 37.1233406 -105.699684 -125.692513
v 15.7647171 -100.247787 -104.588814
v 23.8798656 -100.247742 -110.226486
v 8.39056492 -102.337318 -124.252411
v 6.10492849 -102.337357 -122.326881
v 23.8798656 -100.247742 -110.226486
v 23.8798656 -105.20076 -110.226479
v 8.39056492 -105.699707 -124.252403
v 8.39056492 -102.337318 -124.252411
v 6.10492945 -105.699753 -122.326874
v 8.39056492 -105.699707 -124.252403
v 6.10492849 -102.337357 -122.326881
v 6.10492945 -105.699753 -122.326874
v 23.8798656 -100.247742 -110.226486
v 32.9505119 -100.247734 -109.758156
v 25.5320301 -102.337311 -129.225006
v 22.9772739 -102.337318 -129.384964
v 32.9505119 -100.247734 -109.758156
v 32.9505119 -105.20076 -109.758148
v 25.5320301 -105.699707 -129.225006
v 25.5320301 -102.337311 -129.225006
v 22.9772739 -105.699707 -129.384964
v 25.5320301 -105.699707 -129.225006
v 23.8798656 -105.20076 -110.226479
v 23.8798656 -100.247742 -110.226486
v 22.9772739 -102.337318 -129.384964
v 22.9772739 -105.699707 -129.384964
v -47.1340256 -100.247742 -103.886063
v -47.1340294 -105.200775 -103.886063
v -53.8146896 -105.699638 -110.919617
v -53.8146973 -102.337234 -110.919601
v -54.592453 -105.699646 -109.076714
v -53.8146896 -105.699638 -110.919617
v -54.592453 -102.337234 -109.076691
v -54.592453 -105.699646 -109.076714
v -49.8954277 -100.24778 -98.4902039
v -47.1340256 -100.247742 -103.886063
v -53.8146973 -102.337234 -110.919601
v -54.592453 -102.337234 -109.076691
v -32.9505119 -100.247734 -109.758156
v -32.9505119 -105.20076 -109.758148
v -37.1233521 -105.699684 -125.692505
v -37.1233521 -102.337273 -125.692513
v -41.1181564 -105.699692 -123.686958
v -37.1233521 -105.699684 -125.692505
v -47.1340294 -105.200775 -103.886063
v -47.1340256 -100.247742 -103.886063
v -41.1181526 -102.337296 -123.686935
v -41.1181564 -105.699692 -123.686958
v -47.1340256 -100.247742 -103.886063
v -32.9505119 -100.247734 -109.758156
v -37.1233521 -102.337273 -125.692513
v -41.1181526 -102.337296 -123.686935
v -6.10491085 -105.699753 -122.326866
v -6.10490942 -102.337341 -122.326881
v -8.39054585 -105.699707 -124.252388
v -6.10491085 -105.699753 -122.326866
v -23.8798656 -105.20076 -110.226479
v -23.8798656 -100.247742 -110.226486
v -8.39054585 -102.337311 -124.252403
v -8.39054585 -105.699707 -124.252388
v -23.8798656 -100.247742 -110.226486
v -15.7647171 -100.247787 -104.588814
v -6.10490942 -102.337341 -122.326881
v -8.39054585 -102.337311 -124.252403
v -23.8798656 -100.247742 -110.226486
v -23.8798656 -105.20076 -110.226479
v -22.9772873 -105.699707 -129.384949
v -22.9772873 -102.337318 -129.384949
v -25.5320415 -105.699707 -129.225006
v -22.9772873 -105.699707 -129.384949
v -32.9505119 -105.20076 -109.758148
v -32.9505119 -100.247734 -109.758156
v -25.5320454 -102.337311 -129.225006
v -25.5320415 -105.699707 -129.225006
v -32.9505119 -100.247734 -109.758156
v -23.8798656 -100.247742 -110.226486
v -22.9772873 -102.337318 -129.384949
v -25.5320454 -102.337311 -129.225006
v 40.7992821 -102.187881 21.6926098
v 40.9603424 -99.6144791 21.7243156
v 44.0694313 -99.8809738 22.3363686
v 44.0694313 -102.187889 22.3363686
v 34.4370041 -102.021927 20.4401283
v 34.8253822 -99.1323853 20.5165806
v 38.5138779 -99.4485321 21.2427006
v 38.3528214 -102.021927 21.2109947
v -27.1167793 -98.5725021 18.9990635
v -27.1167793 -101.842621 18.9990597
v -30.3102646 -101.842628 19.627737
v -29.5818291 -98.7837906 19.4843369
v -31.9268665 -98.8208084 19.9459782
v -32.655304 -101.879662 20.0893841
v -36.5410004 -101.879662 20.8543167
v -36.0632935 -99.1753616 20.7602787
v -34.7529106 -95.6046829 44.270359
v 31.0846386 -95.200882 43.5482216
v 37.071743 -101.499466 44.7268448
v -28.9685287 -101.499466 43.1316452
v 32.0186501 -98.8574142 19.9640484
v 27.5784092 -98.4768143 19.0899429
v 31.0846386 -95.200882 43.5482216
v 30.4254379 -101.499458 43.418457
v 31.6302681 -101.746948 19.8875942
v 32.0186501 -98.8574142 19.9640484
v 27.5784092 -101.746948 19.0899391
v 31.6302681 -101.746948 19.8875942
v 27.5784092 -98.4768143 19.0899429
v 27.5784092 -101.746948 19.0899391
v -34.7529106 -95.6046829 44.270359
v -35.5637131 -101.499481 44.4299736
v -39.4633522 -102.081734 21.429615
v -38.9856529 -99.3774185 21.3355789
v -43.621994 -102.081734 22.2482872
v -39.4633522 -102.081734 21.429615
v -43.621994 -99.7748184 22.2482872
v -43.621994 -102.081734 22.2482872
v -38.9856529 -99.3774185 21.3355789
v -43.621994 -99.7748184 22.2482872
v 37.071743 -101.499466 44.7268448
v 37.345108 -95.8900223 44.7806625
v 40.9603424 -99.6144791 21.7243156
v 40.7992821 -102.187881 21.6926098
v 44.0694313 -99.8809738 22.3363686
v 40.9603424 -99.6144791 21.7243156
v 44.0694313 -102.187889 22.3363686
v 44.0694313 -99.8809738 22.3363686
v 40.7992821 -102.187881 21.6926098
v 44.0694313 -102.187889 22.3363686
v 30.4254379 -101.499458 43.418457
v 31.0846386 -95.200882 43.5482216
v 34.8253822 -99.1323853 20.5165806
v 34.4370041 -102.021927 20.4401283
v 38.5138779 -99.4485321 21.2427006
v 34.8253822 -99.1323853 20.5165806
v 37.345108 -95.8900223 44.7806625
v 37.071743 -101.499466 44.7268448
v 38.3528214 -102.021927 21.2109947
v 38.5138779 -99.4485321 21.2427006
v 34.4370041 -102.021927 20.4401283
v 38.3528214 -102.021927 21.2109947
v -27.1167793 -101.842621 18.9990597
v -27.1167793 -98.5725021 18.9990635
v -30.3102646 -101.842628 19.627737
v -27.1167793 -101.842621 18.9990597
v -28.9685287 -101.499466 43.1316452
v -27.7321568 -94.8318481 42.8882523
v -29.5818291 -98.7837906 19.4843369
v -30.3102646 -101.842628 19.627737
v -27.1167793 -98.5725021 18.9990635
v -29.5818291 -98.7837906 19.4843369
v -27.7321568 -94.8318481 42.8882523
v -28.9685287 -101.499466 43.1316452
v -32.655304 -101.879662 20.0893841
v -31.9268665 -98.8208084 19.9459782
v -36.5410004 -101.879662 20.8543167
v -32.655304 -101.879662 20.0893841
v -35.5637131 -101.499481 44.4299736
v -34.7529106 -95.6046829 44.270359
v -36.0632935 -99.1753616 20.7602787
v -36.5410004 -101.879662 20.8543167
v -31.9268665 -98.8208084 19.9459782
v -36.0632935 -99.1753616 20.7602787

# 227 UV coordinates
vt 0.409713447 0.836093307 0
vt 0.548170805 0.852346897 0
vt 0.54390347 0.896696985 0
vt 0.450645298 0.922169387 0
vt 0.322734445 0.933065474 0
vt 0.328220904 0.872434974 0
vt 0.218374282 0.900429428 0
vt 0.218374282 0.832714915 0
vt 0.109116107 0.838136852 0
vt 0.122527719 0.772772968 0
vt 0.0448876619 0.732593 0
vt 0.0514883921 0.699252069 0
vt 0.604985178 0.862314701 0
vt 0.608033359 0.900284111 0
vt 0.674293876 0.876621068 0
vt 0.666518271 0.928718269 0
vt 0.59457016 0.910488963 0
vt 0.579959691 0.860497653 0
vt 0.608700871 0.862290919 0
vt 0.626028299 0.921476543 0
vt 0.711605847 0.988105834 0
vt 0.712444365 0.980483592 0
vt 0.743560076 0.982546568 0
vt 0.742721677 0.987882674 0
vt 0.767582715 0.951015472 0
vt 0.761559188 0.889130175 0
vt 0.808804989 0.907818139 0
vt 0.818018496 0.948964596 0
vt 0.88082093 0.89971745 0
vt 0.880356669 0.931842983 0
vt 0.923093855 0.886202097 0
vt 0.923676848 0.904797554 0
vt 0.950167835 0.88119936 0
vt 0.950626791 0.895590842 0
vt 0.976090491 0.885709047 0
vt 0.969137549 0.888874829 0
vt 0.604985178 0.758661628 0
vt 0.665448725 0.785184205 0
vt 0.709872663 0.872699678 0
vt 0.702381849 0.808240771 0
vt 0.765600383 0.853592396 0
vt 0.815405726 0.853177726 0
vt 0.886074245 0.848834634 0
vt 0.917749584 0.860513031 0
vt 0.944704533 0.863438368 0
vt 0.973961055 0.875631094 0
vt 0.105566472 0.657364547 0
vt 0.111746699 0.752836227 0
vt 0.0520684645 0.673459113 0
vt 0.198476434 0.686399162 0
vt 0.20599249 0.808256209 0
vt 0.308454454 0.716222286 0
vt 0.31632039 0.84238559 0
vt 0.423662603 0.699487269 0
vt 0.398168296 0.801554382 0
vt 0.454877764 0.736127079 0
vt 0.548170805 0.735737264 0
vt 0.728536427 0.499625146 0
vt 0.73168081 0.499625146 0
vt 0.762109101 0.499625146 0
vt 0.758964479 0.499625206 0
vt 0.785240889 0.499625206 0
vt 0.787336171 0.499625206 0
vt 0.710673392 0.74055922 0
vt 0.77016288 0.828451395 0
vt 0.821765482 0.829353333 0
vt 0.87850827 0.824234247 0
vt 0.90704906 0.834362864 0
vt 0.942269146 0.839505196 0
vt 0.968445837 0.863854051 0
vt 0.114125937 0.546710193 0
vt 0.0497663915 0.626471937 0
vt 0.214086682 0.536622107 0
vt 0.385149062 0.570110738 0
vt 0.417891264 0.60025388 0
vt 0.462131083 0.631743312 0
vt 0.540855646 0.66237545 0
vt 0.700351059 0.499625027 0
vt 0.701482654 0.499625027 0
vt 0.617500901 0.874484777 0
vt 0.63105154 0.915649116 0
vt 0.751068652 0.898938715 0
vt 0.719594717 0.893119097 0
vt 0.690419257 0.954419017 0
vt 0.647954702 0.940017998 0
vt 0.652812123 0.932066619 0
vt 0.686246753 0.946718693 0
vt 0.636538029 0.890786886 0
vt 0.642944276 0.900159657 0
vt 0.75786978 0.942649603 0
vt 0.698793471 0.940953493 0
vt 0.662553132 0.919077992 0
vt 0.672591865 0.926561952 0
vt 0.702456594 0.956156194 0
vt 0.761532962 0.955972672 0
vt 0.653742313 0.894040287 0
vt 0.664567053 0.904950798 0
vt 0.604985178 0.681874633 0
vt 0.665448725 0.708397031 0
vt 0.663091958 0.623155057 0
vt 0.629268467 0.610108197 0
vt 0.625773251 0.621299922 0
vt 0.659596622 0.634346426 0
vt 0.677272558 0.638091981 0
vt 0.691134274 0.635141313 0
vt 0.594442904 0.607593596 0
vt 0.59570092 0.603565991 0
vt 0.712040722 0.527557671 0
vt 0.694482923 0.520785272 0
vt 0.692668438 0.526594818 0
vt 0.710226238 0.533367336 0
vt 0.713855743 0.535311401 0
vt 0.72659713 0.533779919 0
vt 0.676405013 0.519479811 0
vt 0.677058041 0.517389238 0
vt 0.762109101 0.509641051 0
vt 0.73168081 0.509640932 0
vt 0.728536189 0.509641051 0
vt 0.758964479 0.509641051 0
vt 0.785240889 0.509641111 0
vt 0.787336171 0.509641051 0
vt 0.700351059 0.509640932 0
vt 0.701482654 0.509640932 0
vt 0.123746902 0.578590512 0
vt 0.226299256 0.573132277 0
vt 0.397925347 0.612232208 0
vt 0.395517886 0.509981215 0
vt 0.414801896 0.507160902 0
vt 0.40698427 0.507160902 0
vt 0.386937201 0.509915411 0
vt 0.420365155 0.556174219 0
vt 0.393952578 0.549187362 0
vt 0.400546521 0.548428833 0
vt 0.385087997 0.539033234 0
vt 0.396308929 0.532377422 0
vt 0.419224203 0.535348713 0
vt 0.481194794 0.526277244 0
vt 0.478106022 0.524599671 0
vt 0.47837621 0.511862755 0
vt 0.481194794 0.511862814 0
vt 0.398636937 0.530668318 0
vt 0.384867936 0.523352444 0
vt 0.475540221 0.523206115 0
vt 0.473377466 0.522031486 0
vt 0.473377466 0.511862576 0
vt 0.96667552 0.317104459 0
vt 0.903981149 0.376363575 0
vt 0.775745749 0.344580293 0
vt 0.808623552 0.297135472 0
vt 0.63434577 0.275116444 0
vt 0.634345472 0.309534192 0
vt 0.500599384 0.299703121 0
vt 0.500599623 0.272901237 0
vt 0.365979195 0.270671606 0
vt 0.365978897 0.289807796 0
vt 0.0502503365 0.273902655 0
vt 0.0502503365 0.270599008 0
vt 0.328220904 0.569547951 0
vt 0.426534653 0.58787483 0
vt 0.226299256 0.53044802 0
vt 0.123746902 0.535906494 0
vt 0.808623552 0.285069227 0
vt 0.96667552 0.305038452 0
vt 0.500599623 0.260834932 0
vt 0.63434577 0.26305002 0
vt 0.0502503365 0.258532763 0
vt 0.365979195 0.258605301 0
vt 0.365978897 0.295231819 0
vt 0.634345472 0.314958215 0
vt 0.500599325 0.305127144 0
vt 0.903981149 0.381787598 0
vt 0.775745749 0.350004315 0
vt 0.0394887328 0.673459113 0
vt 0.0389086604 0.716815352 0
vt 0.0448876619 0.752772987 0
vt 0.109116107 0.858316779 0
vt 0.218374282 0.920609295 0
vt 0.322734445 0.95324558 0
vt 0.450645298 0.942349434 0
vt 0.54390347 0.916877031 0
vt 0.608033359 0.920464098 0
vt 0.668700099 0.952898204 0
vt 0.61907208 0.938608885 0
vt 0.591510713 0.931265652 0
vt 0.642176747 0.951832473 0
vt 0.816607296 0.957854629 0
vt 0.763857484 0.967505217 0
vt 0.884872496 0.936350286 0
vt 0.928757191 0.911845326 0
vt 0.956063032 0.901436508 0
vt 0.979324043 0.893032372 0
vt 0.98329401 0.886142254 0
vt 0.9815979 0.875197947 0
vt 0.970939517 0.857051015 0
vt 0.94940567 0.827410758 0
vt 0.907318354 0.816542029 0
vt 0.883894265 0.79305625 0
vt 0.821765482 0.787807345 0
vt 0.77016288 0.786905468 0
vt 0.710673392 0.697874963 0
vt 0.665448725 0.665712893 0
vt 0.604985178 0.639190495 0
vt 0.540855646 0.619691312 0
vt 0.594570041 0.910488904 0
vt 0.62602824 0.921476543 0
vt 0.608700931 0.862290919 0
vt 0.579959631 0.860497594 0
vt 0.38468501 0.801554382 0
vt 0.6310516 0.915649056 0
vt 0.617500901 0.874484718 0
vt 0.690419078 0.954418778 0
vt 0.686246634 0.946718454 0
vt 0.652812004 0.932066679 0
vt 0.647954643 0.940018058 0
vt 0.642944157 0.900159538 0
vt 0.672591805 0.926562011 0
vt 0.662553132 0.919077873 0
vt 0.664566994 0.904950738 0
vt 0.653742373 0.894040465 0
vt 0.476602614 0.523783147 0
vt 0.476270348 0.511862695 0
vt 0.479480028 0.525345922 0
vt 0.61907202 0.938609004 0
vt 0.591510534 0.931265533 0
vt 0.642176628 0.951832414 0
vt 0.475652277 0.511862636 0
vt 0.478973329 0.511862755 0

# 528 vertex normals
vn 0.793101311 0.523784161 -0.310870856
vn 0.928984046 0.369593263 -0.0197337586
vn 0.604382694 0.795319617 -0.0467789136
vn 0.605646908 0.780423105 -0.155343682
vn 0.580871761 0.807710588 0.100954406
vn 0.642580271 0.765421689 0.0349325612
vn 0.537825882 0.7017923 0.467152059
vn 0.603750527 0.635503113 0.481270283
vn 0.665358424 0.584618747 0.464240372
vn 0.687586546 0.558577418 0.463913947
vn 0.767285407 0.482305169 0.422675878
vn 0.926258206 0.224766403 0.302532434
vn 0.92022872 0.388532341 0.0471356362
vn 0.520138681 0.833361924 0.186986148
vn 0.919481218 0.38215524 -0.0922595933
vn 0.623586774 0.765853822 0.156867653
vn 0.915766895 0.276409209 -0.291494399
vn 0.555276573 0.826768935 0.0901172161
vn -0.383746147 0.833243251 0.398050904
vn 0.528726518 0.423636764 0.735513628
vn 0.722746551 0.363233536 -0.587961674
vn -0.384737253 0.881943405 -0.272310495
vn 0.596024632 0.80028379 -0.0655789301
vn 0.968410492 0.227434352 -0.102248207
vn 0.916319668 0.389897406 -0.0913144574
vn 0.663862348 0.739834785 -0.109230749
vn 0.90824616 0.318970948 -0.270825773
vn 0.576862872 0.752078474 -0.318759084
vn 0.919815719 0.287271142 -0.267234832
vn 0.579230309 0.712956071 -0.395203531
vn 0.904170036 0.259916276 -0.338998646
vn 0.530508041 0.776385963 -0.340273738
vn 0.716758072 0.205602035 -0.66632247
vn 0.442197949 0.731452346 -0.519074678
vn 0.999511063 -0.0310794581 0.00343740592
vn 0.937709153 -0.0270689018 -0.346365154
vn 0.765430033 -0.182175189 -0.617194533
vn 0.903268218 -0.276805431 -0.327849716
vn 0.959761262 -0.269762129 -0.0780174956
vn 0.946190059 -0.236313716 -0.221088871
vn 0.944140732 -0.195391119 -0.265369028
vn 0.875776231 -0.235505939 -0.421370387
vn 0.614822686 -0.101810075 -0.782066405
vn 0.916032434 -0.401074111 -0.00492380839
vn 0.97319901 0.113923684 0.199762508
vn 0.928464353 -0.274907678 0.2497596
vn 0.93016541 -0.36352998 0.0513646081
vn 0.874200881 0.193887547 0.445174605
vn 0.958603263 -0.268585533 0.0945610777
vn 0.928567767 0.349138916 0.125952587
vn 0.874099612 -0.195959151 -0.444466054
vn 0.875120878 0.292935133 -0.385165542
vn 0.828575015 -0.0935652405 -0.552004635
vn 0.975109041 -0.220414191 0.0240855031
vn 0.330956787 -0.912250936 0.241383165
vn -0.237416208 -0.963866234 0.120812133
vn -0.297884941 -0.942953169 0.148674369
vn -0.00892672595 -0.999912143 0.00980125926
vn -0.00490928767 -0.999869466 0.0153983282
vn 0.00352764223 -0.999910414 0.0129141901
vn 0.28026104 -0.370768607 -0.885429025
vn 0.681609869 -0.529143572 -0.505386174
vn 0.733620584 -0.678977787 -0.028107278
vn 0.718299329 -0.674834967 -0.169244945
vn 0.681214571 -0.660108507 -0.31654942
vn 0.644595087 -0.654592276 -0.394976139
vn 0.443549722 -0.352673531 -0.823944807
vn 0.724109232 -0.689279079 -0.0236696843
vn 0.940999508 -0.170683995 -0.29221049
vn 0.656417787 -0.745848835 -0.113248438
vn 0.782405555 -0.6220994 -0.0288776234
vn 0.692751706 -0.45510596 -0.559440494
vn 0.484924972 -0.638597012 -0.597529709
vn 0.695791304 -0.718009174 0.0183647666
vn 0.133977011 -0.958481193 0.251722097
vn -0.162734926 -0.960274875 0.226692498
vn 0.990865529 0.12754415 0.0437971652
vn -0.242063046 0.79742825 0.552732825
vn 0.899204075 0.0701629296 -0.431867152
vn -0.00534076663 0.716031373 -0.698047638
vn -0.508941472 -0.171184972 0.843607903
vn -0.574593604 0.460514873 0.676585793
vn 0.962766111 -0.229761705 -0.142446429
vn 0.961578548 -0.237165496 -0.138272554
vn -0.344714433 0.655637741 -0.671797037
vn -0.0563085228 -0.100366585 -0.99335593
vn 0.939205527 -0.333385646 -0.082140781
vn 0.939205468 -0.333385617 -0.0821407735
vn -0.505555391 -0.835922718 -0.213651195
vn -0.566753447 -0.681086421 -0.463585824
vn -0.984100819 -0.0681174248 -0.164029762
vn -0.953458369 -0.256140083 0.159089237
vn 0.979813278 -0.157108888 0.123623423
vn 0.928552806 0.00223261537 -0.371193528
vn 0.586495042 -0.00671643298 -0.809925079
vn -0.378385633 -0.0674616545 -0.923186481
vn 0.724696338 -0.412052423 0.55229342
vn -0.15235272 -0.659501255 0.736102462
vn -0.961196721 0.0931753442 -0.259652287
vn -0.943991244 -0.262803793 0.199536219
vn 0.936005056 -0.304836422 0.175981
vn 0.831306636 0.221245855 -0.509881914
vn 0.444072038 0.404453754 -0.799510717
vn -0.563303947 0.378737807 -0.734333992
vn 0.521393895 -0.616561532 0.589915454
vn -0.522708416 -0.631470501 0.572731137
vn -0.799217403 0.601004541 -0.00671810331
vn -0.877389371 0.33235696 0.346015573
vn 0.941904187 0.183533534 0.281304181
vn 0.511728346 0.692852497 -0.50802511
vn 0.226811588 0.718442023 -0.657569468
vn -0.334212333 0.811671376 -0.479052961
vn 0.487315446 -0.629014134 0.605693817
vn -0.647302032 -0.342868447 0.680765271
vn 0.92131424 -1.13434385e-06 -0.388819069
vn 0.92131424 -1.13434396e-06 -0.388819069
vn 0.92131412 -1.13434396e-06 -0.388819039
vn 0.448673338 6.32829142e-07 -0.893695831
vn 0.448673338 6.32829085e-07 -0.893695831
vn 0.448673308 6.32829028e-07 -0.893695831
vn 0.448673308 6.32829142e-07 -0.893695891
vn -0.644290507 -1.91331014e-06 -0.764780879
vn -0.644290507 -1.91330992e-06 -0.764780819
vn -0.644290507 -1.91331037e-06 -0.764780998
vn 0.0624893196 0 -0.998045683
vn 0.062489327 0 -0.998045683
vn 0.0624893233 0 -0.998045683
vn 0.564908087 -0.645622551 -0.513858318
vn 0.0900344923 -0.946197212 -0.310812801
vn -0.213666111 -0.945232451 -0.246744007
vn -0.53600049 -0.615142763 0.578189373
vn -0.702574193 -0.695440531 0.15083763
vn 0.555677593 -0.822609186 0.120567471
vn 0.298520088 -0.623341978 0.722724378
vn -0.587633967 -0.545892775 -0.597233236
vn -0.67394793 -0.0228426773 0.738425612
vn 0.586710751 -0.521239281 -0.619741917
vn 0.499979556 -0.0984668061 0.86042124
vn -0.717324436 -0.0482971035 0.695063412
vn -0.707301557 0.132604048 -0.694363594
vn 0.193153381 1.20325097e-07 -0.981168568
vn 0.193153366 1.20325097e-07 -0.981168568
vn 0.193153352 1.20325083e-07 -0.981168568
vn 0.193153381 1.20325083e-07 -0.981168568
vn 0.788837314 0.10442993 -0.605664968
vn 0.360669315 -0.0725667775 0.929866552
vn 0.171312183 0.902411997 -0.395354182
vn 0.874067426 0.473230332 -0.109815225
vn 0.791003942 -0.610531271 0.0395514555
vn -0.00202162401 -0.999945283 0.0102640353
vn -0.802441955 -0.592396379 -0.0717881396
vn -0.773427904 0.592731774 -0.22467415
vn 0.282806009 0.645290971 -0.709662199
vn 0.447921604 -0.028327113 -0.893623948
vn 0.0638252571 -0.000416796684 -0.997961044
vn 0.0335502438 0.53963244 -0.841232002
vn -0.376491934 0.569212437 -0.730924785
vn -0.483706027 -0.155458927 -0.861313581
vn -0.891866922 -0.0932546109 -0.442580104
vn -0.661969483 0.627769589 -0.40951404
vn 0.460132688 0.882054627 -0.101279542
vn -0.965755165 -0.135364622 -0.221344471
vn -0.0614817925 -0.919795156 -0.387552351
vn 0.00191521109 -0.961626887 -0.274353862
vn -0.0346995741 -0.974905431 -0.219898432
vn -0.01306393 -0.999404192 0.0319490507
vn 0.0381557681 -0.999079406 0.0196117796
vn -0.15087755 -0.988346517 -0.0201800261
vn -0.0313262269 -0.99634105 0.0795184523
vn -0.421265513 -0.906332433 0.0331200138
vn -0.338773876 -0.93949908 -0.0507322326
vn 0.409771889 0.910252929 0.0593866147
vn 0.0975721925 0.994565666 0.036316704
vn 0.217717931 0.972766876 0.0795204416
vn 0.611998498 0.141207501 0.778150618
vn 0.0913813636 0.981643915 0.167406246
vn 0.662937224 -0.25613147 0.703499138
vn 0.661952734 0.0567095056 0.747397184
vn 0.453066587 0.550208211 0.701428235
vn 0.249099225 0.727905035 0.638830125
vn 0.081393905 0.859009027 0.505448699
vn 0.0156474542 0.989420652 0.144228891
vn 8.41276293e-09 0.986340284 -0.164720699
vn 6.17237017e-09 0.989025235 -0.147746533
vn 1.64556404e-08 0.963401496 0.2680628
vn -9.95327465e-09 0.894882679 0.446301579
vn -3.49100269e-08 0.974981487 0.22228612
vn 0 0.991543591 -0.129774719
vn 7.16893078e-09 0.970239401 -0.242147788
vn -2.24702656e-08 0.933042586 -0.359765917
vn -1.23098872e-07 0.889967024 -0.456025094
vn -1.06409324e-07 0.940553308 -0.339646161
vn 1.63291972e-07 0.876262188 -0.48183465
vn -4.31241801e-07 -0.0184324533 -0.999830186
vn -2.03536317e-07 -0.182676837 -0.983173013
vn -4.19994706e-08 -0.492211074 -0.870475888
vn 1.09143947e-08 -0.887487829 -0.460831165
vn -3.0132675e-08 -0.920451164 -0.390857756
vn -2.19615561e-08 -0.975278854 -0.220978066
vn 0 -0.998723149 -0.0505187698
vn -1.3296382e-07 -0.705398023 -0.708811402
vn -6.2867791e-08 -0.679902494 -0.733302593
vn 6.02004064e-08 -0.871211052 -0.490908802
vn -8.63432881e-09 -0.936005056 -0.351986825
vn -6.47430287e-09 -0.950450838 -0.310875148
vn -0.793101311 0.523784161 -0.310870826
vn -0.605646968 0.780423045 -0.155343682
vn -0.604382694 0.795319617 -0.0467789099
vn -0.928984046 0.369593352 -0.0197337419
vn -0.624268591 0.780645728 -0.0296833757
vn -0.556215763 0.829889238 0.0436818637
vn -0.42138204 0.761601806 0.492341191
vn -0.443239331 0.766722918 0.4644081
vn -0.206580356 0.671630085 0.711503804
vn -0.229491681 0.639354646 0.733865976
vn -0.0658697858 0.222885609 0.972616673
vn 0.0748429298 0.458251774 0.885665894
vn -0.520138621 0.833361864 0.186986163
vn -0.920228779 0.38853237 0.0471356437
vn -0.623586774 0.765853822 0.156867713
vn -0.919481218 0.382155269 -0.0922596157
vn -0.555276692 0.826768816 0.0901172236
vn -0.915766895 0.276409268 -0.291494399
vn 0.383746505 0.833243251 0.398050994
vn 0.384737462 0.881943405 -0.272310525
vn -0.722746611 0.363233566 -0.587961555
vn -0.528726578 0.423636615 0.735513628
vn -0.596024573 0.80028373 -0.0655791536
vn -0.663862288 0.739834845 -0.109230861
vn -0.916319668 0.389897466 -0.091314517
vn -0.968410552 0.227434382 -0.102248251
vn -0.576862872 0.752078474 -0.318759054
vn -0.9082461 0.318970948 -0.270825833
vn -0.579230368 0.712956131 -0.395203441
vn -0.919815719 0.287271142 -0.267234862
vn -0.530508101 0.776385963 -0.340273619
vn -0.904170036 0.259916484 -0.338998765
vn -0.442197829 0.731452823 -0.519074142
vn -0.716758192 0.205602452 -0.666322231
vn -0.937709212 -0.0270688813 -0.346365184
vn -0.999511003 -0.0310794562 0.00343741477
vn -0.765429974 -0.182175219 -0.617194593
vn -0.903268099 -0.27680549 -0.327849805
vn -0.959761262 -0.269762129 -0.0780174807
vn -0.946190059 -0.236313581 -0.221088856
vn -0.944140673 -0.195391044 -0.265369028
vn -0.87577635 -0.235505939 -0.421370208
vn -0.614823103 -0.101809882 -0.782066047
vn -0.630978942 -0.319767743 0.706833899
vn -0.0725329369 -0.212291494 0.974510908
vn -0.68407011 0.141436026 0.715572417
vn -0.932058334 -0.287683189 0.220240325
vn -0.935459137 0.191238746 0.297227442
vn -0.965170383 -0.258388042 -0.0410098843
vn -0.941368461 0.337075144 0.0143460333
vn -0.87040633 -0.196758315 -0.451308161
vn -0.867092669 0.302635193 -0.395679504
vn -0.828574955 -0.0935652107 -0.552004635
vn -0.975109041 -0.220414177 0.0240855105
vn -0.330956906 -0.912250936 0.241383374
vn 0.00892672222 -0.999912202 0.00980129186
vn 0.297885388 -0.942952871 0.14867498
vn 0.237416178 -0.963866234 0.120812364
vn 0.00490927696 -0.999869466 0.0153980777
vn -0.00352766155 -0.999910414 0.0129141388
vn -0.681610048 -0.529143393 -0.505386055
vn -0.280261189 -0.370768487 -0.885428905
vn -0.733620822 -0.678977609 -0.0281072166
vn -0.718299687 -0.674834609 -0.169244796
vn -0.681215048 -0.660108089 -0.316549331
vn -0.644595683 -0.654591799 -0.39497599
vn -0.443551004 -0.352673203 -0.823944271
vn -0.500504255 -0.687307954 0.526405931
vn -0.21844697 -0.408356249 0.886299193
vn -0.766412973 -0.637791634 0.0763734728
vn -0.794640183 -0.599590302 -0.0950704291
vn -0.689871252 -0.458549023 -0.560187936
vn -0.487062454 -0.635332167 -0.599268913
vn -0.695791304 -0.718009233 0.0183647778
vn 0.162734941 -0.960274875 0.226692572
vn -0.133977056 -0.958481193 0.251722217
vn 0.242062911 0.797428489 0.552732646
vn -0.990865469 0.127544209 0.0437971428
vn -0.899204075 0.0701629743 -0.431867123
vn 0.00534074008 0.716031432 -0.698047638
vn 0.574593663 0.460514963 0.676585674
vn 0.50894165 -0.171184927 0.843607724
vn -0.961578548 -0.23716557 -0.138272569
vn -0.962766171 -0.229761824 -0.142446429
vn 0.0563084967 -0.100366548 -0.99335593
vn 0.344714403 0.655637681 -0.671797037
vn -0.939205527 -0.333385736 -0.0821407959
vn -0.939205527 -0.333385736 -0.0821408033
vn 0.505555391 -0.835922778 -0.213651225
vn 0.953458428 -0.256140113 0.159089267
vn 0.984100819 -0.0681174323 -0.164029792
vn 0.566753626 -0.681086361 -0.463585705
vn -0.928552926 0.00223263307 -0.371193528
vn -0.979813278 -0.157108858 0.123623438
vn -0.586495042 -0.00671639759 -0.80992502
vn 0.378385723 -0.0674616396 -0.923186541
vn -0.724696398 -0.412052453 0.55229342
vn 0.152352706 -0.659501255 0.736102462
vn 0.943991303 -0.262803763 0.19953613
vn 0.961196721 0.0931753442 -0.259652376
vn -0.831306696 0.22124587 -0.509881914
vn -0.936005056 -0.304836392 0.17598103
vn -0.444072038 0.404453784 -0.799510598
vn 0.563304126 0.378737718 -0.734333873
vn -0.521393955 -0.616561651 0.589915395
vn 0.522708416 -0.631470621 0.572731078
vn 0.877389729 0.33235693 0.346014887
vn 0.799217701 0.601004183 -0.00671783602
vn -0.511728466 0.692852497 -0.508025169
vn -0.941904187 0.183533564 0.28130427
vn -0.226811454 0.718442082 -0.657569528
vn 0.334212482 0.811671317 -0.479052901
vn -0.487315476 -0.629014194 0.605693758
vn 0.64730227 -0.342868656 0.680764973
vn -0.921312213 1.13434714e-06 -0.388823569
vn -0.921312273 1.13434726e-06 -0.388823569
vn -0.921312213 1.13434714e-06 -0.388823599
vn -0.448669195 2.53807229e-06 -0.893697858
vn -0.448669285 2.53807252e-06 -0.893697917
vn -0.448669225 2.53807229e-06 -0.893697917
vn -0.448669165 2.53807207e-06 -0.893697858
vn 0.644287407 -3.60632339e-06 -0.764783502
vn 0.644287407 -3.60632316e-06 -0.764783561
vn 0.644287348 -3.60632293e-06 -0.764783502
vn -0.0624836273 0 -0.998045981
vn -0.0624836236 0 -0.998045981
vn -0.303293705 -0.828951597 0.469949335
vn -0.054109484 -0.983767211 -0.171097577
vn 0.1764981 -0.962186694 -0.207473621
vn 0.536000431 -0.615142763 0.578189373
vn -0.298520237 -0.623341978 0.722724378
vn -0.560734391 -0.819012642 0.121636331
vn 0.694987535 -0.703361988 0.149245784
vn 0.673948109 -0.0228426903 0.738425553
vn 0.587633848 -0.545892715 -0.597233236
vn -0.58671087 -0.52123934 -0.619741857
vn -0.499979049 -0.0984667093 0.860421598
vn 0.717324257 -0.0482972823 0.695063531
vn 0.686402917 0.161638856 -0.70903033
vn -0.193153039 3.41161183e-07 -0.981168628
vn -0.193152994 3.41161183e-07 -0.981168687
vn -0.193153009 3.41161154e-07 -0.981168628
vn -0.193153024 3.41161211e-07 -0.981168747
vn -0.791393757 0.0985295102 -0.603314221
vn -0.360669434 -0.0725668073 0.929866552
vn 0.912883818 0.372761607 -0.166409642
vn -0.170714244 0.904189467 -0.391533196
vn -0.784637451 0.600765407 -0.153052822
vn -0.716953278 -0.69650203 0.0293757692
vn 0.00242326595 -0.999921381 0.0123026073
vn 0.860966861 -0.504231513 -0.0669836774
vn -0.28655985 -0.47535786 0.831816316
vn -0.18310301 -0.015178239 0.982976556
vn 0.066993475 -0.250123143 0.965893626
vn 0.613252819 -0.0824133307 0.785575688
vn 0.529851139 0.410273522 0.742248952
vn 0.0375888012 0.121254474 0.991909564
vn 0.923164427 -0.0715384781 0.377689838
vn 0.964644849 -0.150910422 0.216070443
vn 0.845645785 0.40122664 0.351994872
vn 0.203592867 0.973983169 -0.099533096
vn 0.203592882 0.973983228 -0.099533096
vn 0.203592896 0.973983169 -0.099533096
vn 0.203592882 0.973983169 -0.099533096
vn 0.914070547 -5.0700578e-06 0.405555189
vn 0.914070606 -5.07005825e-06 0.405555218
vn -0.0498317964 -0.998460591 0.0243596788
vn -0.049831789 -0.998460531 0.0243596807
vn -0.725061417 7.56649627e-07 -0.688684285
vn -0.725061417 7.56649513e-07 -0.688684225
vn -0.725061417 7.5664957e-07 -0.688684285
vn 0.0514033213 0.991608977 -0.118614592
vn 0.0514033251 0.991609037 -0.118614599
vn 0.0514033176 0.991608977 -0.118614577
vn 0.0514033288 0.991608977 -0.118614599
vn 0.956814766 2.12808368e-06 -0.290698349
vn 0.956814826 2.12808345e-06 -0.290698379
vn 0.956814826 2.12808368e-06 -0.290698409
vn 0.956814826 2.12808368e-06 -0.290698379
vn -0.0123724705 -0.999515891 0.0285481811
vn -0.0123724695 -0.999515951 0.0285481773
vn -0.967378974 0 -0.253333718
vn -0.967379034 0 -0.253333747
vn -0.0604006015 0.994713247 -0.0830510557
vn -0.0604006052 0.994713187 -0.0830510557
vn -0.0604006015 0.994713247 -0.0830510631
vn -0.0604006015 0.994713187 -0.0830510631
vn 0.6712237 -1.40505199e-06 -0.741254866
vn 0.0144993728 -0.999696374 0.0199255757
vn 0.0144993728 -0.999696374 0.0199255738
vn -0.878217578 1.63532479e-06 0.478261292
vn -0.878217638 1.63532513e-06 0.478261381
vn 0.00587991579 0.994044185 -0.10881912
vn 0.00587991625 0.994044185 -0.108819135
vn 0.00587991625 0.994044185 -0.108819112
vn 0.934447348 -7.04668537e-07 -0.356101453
vn 0.934447348 -7.04668537e-07 -0.356101424
vn 0.934447348 -7.04668537e-07 -0.356101364
vn -0.00141225557 -0.999657631 0.0261309594
vn -0.00141225557 -0.999657571 0.0261309575
vn -0.998892128 0 0.0470596701
vn -0.998892069 0 0.0470596701
vn -0.998892128 0 0.0470596664
vn 0.725060523 1.51330141e-06 -0.688685179
vn 0.725060463 1.51330119e-06 -0.688685238
vn 0.725060463 1.51330153e-06 -0.688685238
vn 0.725060463 1.5133013e-06 -0.688685238
vn 0.0498316698 -0.998460591 0.0243579373
vn 0.049831681 -0.998460591 0.0243579391
vn -0.914070308 -3.80254414e-06 0.405555904
vn -0.914070308 -3.80254437e-06 0.405555934
vn -0.203593016 0.973983109 -0.0995333567
vn -0.203592986 0.973983109 -0.0995333418
vn -0.203593016 0.973983169 -0.0995333493
vn -0.203592971 0.973983109 -0.0995333344
vn 0.967378795 -8.91224317e-07 -0.253334522
vn 0.967378795 -8.91224374e-07 -0.253334522
vn 0.0123724835 -0.999515951 0.0285478272
vn 0.0123724835 -0.999515891 0.0285478272
vn -0.956814766 1.41872658e-06 -0.290698498
vn -0.956814706 1.4187267e-06 -0.290698528
vn -0.956814706 1.41872658e-06 -0.290698469
vn -0.0514045246 0.991608858 -0.118615285
vn -0.0514045209 0.991608858 -0.118615292
vn -0.0514045171 0.991608799 -0.118615277
vn -0.0514045171 0.991608858 -0.118615285
vn 0.878217697 1.99872647e-06 0.478261113
vn 0.878217757 1.99872647e-06 0.478261083
vn -0.0144993765 -0.999696314 0.0199260525
vn -0.0144993775 -0.999696314 0.0199260525
vn -0.671223104 -2.10757571e-06 -0.741255403
vn -0.671223164 -2.10757594e-06 -0.741255403
vn -0.671223104 -2.10757594e-06 -0.741255403
vn 0.0603999048 0.994713247 -0.0830510631
vn 0.0603999086 0.994713187 -0.0830510631
vn 0.0603999123 0.994713247 -0.0830510706
vn 0.998892128 0 0.0470591486
vn 0.998892188 0 0.0470591523
vn 0.00141218735 -0.999657571 0.0261303447
vn 0.00141218724 -0.999657631 0.0261303466
vn -0.934447885 -7.04668651e-07 -0.356100082
vn -0.934447944 -7.04668651e-07 -0.356100053
vn -0.934447885 -7.04668537e-07 -0.356100023
vn -0.934447825 -7.04668651e-07 -0.356100082
vn -0.00587964477 0.994044185 -0.108819567
vn -0.0058796443 0.994044125 -0.108819552
vn -0.00587964384 0.994044185 -0.108819559
vn -0.00587964384 0.994044125 -0.108819537
vn 0.193153054 2.40115298e-07 -0.981168687
vn 0.193153009 2.4011527e-07 -0.981168628
vn 0.193153039 2.4011527e-07 -0.981168628
vn 0.193153024 2.40115298e-07 -0.981168687
vn 0.193152875 -7.17786861e-07 -0.981168747
vn 0.193152875 -7.17786918e-07 -0.981168747
vn 0.19315286 -7.17786861e-07 -0.981168687
vn 0.193152875 -7.17786975e-07 -0.981168747
vn -0.193154737 8.39707809e-07 -0.98116833
vn -0.193154752 8.39707923e-07 -0.981168389
vn -0.193154708 8.39707752e-07 -0.98116827
vn -0.193152085 -3.26850596e-07 -0.981168926
vn -0.19315204 -3.26850568e-07 -0.981168866
vn -0.193152055 -3.26850568e-07 -0.981168866
vn -0.168459833 0.91068095 -0.377202421
vn 0.169280037 0.908281505 -0.382582307
vn -0.00285050832 -0.999891281 0.0144702233
vn 0.00188431761 -0.999952495 0.00956203509
vn 0.128535718 0.98033613 -0.149731889
vn 0.128535718 0.980336189 -0.149731889
vn 0.99194777 -0.114320002 0.0545033701
vn 0.99194783 -0.114320002 0.0545033775
vn 0.99194777 -0.114319995 0.0545033775
vn 0.99194777 -0.114319995 0.0545033701
vn -0.00204974576 -0.999943793 0.0104118334
vn -0.00204974553 -0.999943733 0.0104118325
vn -0.984960437 0 -0.172779992
vn -0.984960496 0 -0.172780007
vn 0.975770712 -0.150885537 -0.158446252
vn 0.975770712 -0.150885522 -0.158446252
vn 0.00482106535 -0.999688447 0.0244897008
vn 0.00482106674 -0.999688447 0.0244897045
vn -0.999101579 0 0.0423794128
vn -0.12595281 0.982756734 -0.135370642
vn -0.125952795 0.982756734 -0.135370627
vn -0.985289156 0.0540033169 -0.162138611
vn -0.985289216 0.0540033244 -0.162138611
vn -0.985289216 0.0540033281 -0.162138626
vn 0.126227885 0.982511163 -0.136888131
vn 0.126227885 0.982511222 -0.136888131
vn 0.998106301 0 0.0615135692
vn 0.998106301 0 0.0615135655
vn -0.00570183247 -0.999564588 0.028950965
vn -0.00570183247 -0.999564648 0.028950965
vn -0.977620482 0.11541041 -0.175893754
vn -0.977620542 0.115410402 -0.175893769
vn -0.977620482 0.115410402 -0.175893769
vn 0.127572551 0.981265485 -0.144372225
vn 0.127572581 0.981265485 -0.14437224
vn 0.996964335 -0.053519655 0.0565484241
vn 0.996964335 -0.0535196513 0.0565484278
vn 0.996964335 -0.053519655 0.0565484203
vn -0.00432693493 -0.999749124 0.0219760928
vn -0.00432693493 -0.999749184 0.0219760947
vn 0.988242567 5.02976832e-07 -0.152894378
vn 0.988242626 5.02976889e-07 -0.152894408
vn 0.00284371316 -0.999891758 0.0144358519
vn 0.00284371292 -0.999891758 0.014435851
vn -0.978681803 0.199620992 0.04830724
vn -0.978681743 0.199620962 0.0483072288
vn -0.978681743 0.199620962 0.0483072363
vn -0.978681803 0.199620977 0.0483072363
vn -0.129771978 0.979091048 -0.156652391
vn -0.129771978 0.979091048 -0.156652421
vn 0.96842593 -0.201467693 -0.146840394
vn 0.96842587 -0.201467708 -0.146840394
vn 0.96842587 -0.201467723 -0.146840394
vn 0.96842587 -0.201467738 -0.146840394
vn 0.0031499099 -0.999867201 0.0159935355
vn 0.00314991013 -0.999867201 0.0159935355
vn -0.988182008 0.149118215 0.0354988016
vn -0.988182068 0.149118215 0.0354988053
vn -0.988182068 0.149118215 0.0354988016
vn -0.127608284 0.981232882 -0.144562662
vn -0.127608269 0.981232822 -0.144562662

# Mesh 'rat' with 764 faces
g rat
usemtl lambert2
f  1/1/1 2/2/2 3/3/3
f  1/1/1 3/3/3 4/4/4
f  1/1/1 4/4/4 5/5/5
f  1/1/1 5/5/5 6/6/6
f  6/6/6 5/5/5 7/7/7
f  6/6/6 7/7/7 8/8/8
f  8/8/8 7/7/7 9/9/9
f  8/8/8 9/9/9 10/10/10
f  10/10/10 9/9/9 11/11/11
f  10/10/10 11/11/11 12/12/12
f  3/3/3 2/2/2 13/13/13
f  3/3/3 13/13/13 14/14/14
f  14/14/14 13/13/13 15/15/15
f  14/14/14 15/15/15 16/16/16
f  17/17/16 18/18/15 19/19/17
f  17/17/16 19/19/17 20/20/18
f  21/21/19 22/22/20 23/23/21
f  21/21/19 23/23/21 24/24/22
f  25/25/23 26/26/24 27/27/25
f  25/25/23 27/27/25 28/28/26
f  28/28/26 27/27/25 29/29/27
f  28/28/26 29/29/27 30/30/28
f  30/30/28 29/29/27 31/31/29
f  30/30/28 31/31/29 32/32/30
f  32/32/30 31/31/29 33/33/31
f  32/32/30 33/33/31 34/34/32
f  34/34/32 33/33/31 35/35/33
f  34/34/32 35/35/33 36/36/34
f  13/13/13 37/37/35 38/38/36
f  13/13/13 38/38/36 15/15/15
f  39/39/17 15/15/15 38/38/36
f  39/39/17 38/38/36 40/40/37
f  26/26/24 39/39/17 40/40/37
f  26/26/24 40/40/37 41/41/38
f  27/27/25 26/26/24 41/41/38
f  27/27/25 41/41/38 42/42/39
f  29/29/27 27/27/25 42/42/39
f  29/29/27 42/42/39 43/43/40
f  31/31/29 29/29/27 43/43/40
f  31/31/29 43/43/40 44/44/41
f  33/33/31 31/31/29 44/44/41
f  33/33/31 44/44/41 45/45/42
f  35/35/33 33/33/31 45/45/42
f  35/35/33 45/45/42 46/46/43
f  47/47/44 48/48/45 12/12/12
f  47/47/44 12/12/12 49/49/46
f  50/50/47 51/51/48 48/48/45
f  50/50/47 48/48/45 47/47/44
f  52/52/49 53/53/50 51/51/48
f  52/52/49 51/51/48 50/50/47
f  54/54/51 55/55/52 53/53/50
f  54/54/51 53/53/50 52/52/49
f  56/56/53 57/57/54 2/2/2
f  56/56/53 2/2/2 1/1/1
f  13/13/13 2/2/2 57/57/54
f  13/13/13 57/57/54 37/37/35
f  58/58/55 59/59/56 60/60/57
f  58/58/55 60/60/57 61/61/58
f  62/62/59 61/61/58 60/60/57
f  62/62/59 60/60/57 63/63/60
f  41/41/38 40/40/37 64/64/61
f  41/41/38 64/64/61 65/65/62
f  42/42/39 41/41/38 65/65/62
f  42/42/39 65/65/62 66/66/63
f  43/43/40 42/42/39 66/66/63
f  43/43/40 66/66/63 67/67/64
f  44/44/41 43/43/40 67/67/64
f  44/44/41 67/67/64 68/68/65
f  45/45/42 44/44/41 68/68/65
f  45/45/42 68/68/65 69/69/66
f  46/46/43 45/45/42 69/69/66
f  46/46/43 69/69/66 70/70/67
f  71/71/68 47/47/44 49/49/46
f  71/71/68 49/49/46 72/72/69
f  73/73/70 50/50/47 47/47/44
f  73/73/70 47/47/44 71/71/68
f  74/74/71 52/52/49 50/50/47
f  74/74/71 50/50/47 73/73/70
f  75/75/72 54/54/51 52/52/49
f  75/75/72 52/52/49 74/74/71
f  76/76/73 77/77/74 57/57/54
f  76/76/73 57/57/54 56/56/53
f  58/58/55 78/78/75 79/79/76
f  58/58/55 79/79/76 59/59/56
f  20/20/18 19/19/17 80/80/77
f  20/20/18 80/80/77 81/81/78
f  39/39/17 26/26/24 82/82/79
f  39/39/17 82/82/79 83/83/77
f  84/84/24 85/85/23 86/86/80
f  84/84/24 86/86/80 87/87/79
f  85/85/23 20/20/18 81/81/78
f  85/85/23 81/81/78 86/86/80
f  81/81/78 80/80/77 88/88/81
f  81/81/78 88/88/81 89/89/82
f  83/83/77 82/82/79 90/90/83
f  83/83/77 90/90/83 91/91/84
f  87/87/79 86/86/80 92/92/85
f  87/87/79 92/92/85 93/93/86
f  86/86/80 81/81/78 89/89/82
f  86/86/80 89/89/82 92/92/85
f  94/94/82 95/91/81 22/22/20
f  94/94/82 22/22/20 21/21/19
f  91/91/84 90/90/83 96/23/87
f  91/91/84 96/23/87 97/22/88
f  98/90/86 99/95/85 24/24/22
f  98/90/86 24/24/22 23/23/21
f  92/92/85 89/89/82 100/96/19
f  92/92/85 100/96/19 101/97/22
f  102/98/89 103/99/90 104/100/91
f  102/98/89 104/100/91 105/101/92
f  38/38/36 37/37/35 106/102/93
f  38/38/36 106/102/93 107/103/94
f  40/40/37 38/38/36 107/103/94
f  40/40/37 107/103/94 108/104/95
f  103/99/90 64/64/61 109/105/96
f  103/99/90 109/105/96 104/100/91
f  64/64/61 40/40/37 108/104/95
f  64/64/61 108/104/95 109/105/96
f  37/37/35 57/57/54 110/106/97
f  37/37/35 110/106/97 106/102/93
f  57/57/54 77/77/74 111/107/98
f  57/57/54 111/107/98 110/106/97
f  77/77/74 102/98/89 105/101/92
f  77/77/74 105/101/92 111/107/98
f  105/101/92 104/100/91 112/108/99
f  105/101/92 112/108/99 113/109/100
f  107/103/94 106/102/93 114/110/101
f  107/103/94 114/110/101 115/111/102
f  108/104/95 107/103/94 115/111/102
f  108/104/95 115/111/102 116/112/103
f  104/100/91 109/105/96 117/113/104
f  104/100/91 117/113/104 112/108/99
f  109/105/96 108/104/95 116/112/103
f  109/105/96 116/112/103 117/113/104
f  106/102/93 110/106/97 118/114/105
f  106/102/93 118/114/105 114/110/101
f  110/106/97 111/107/98 119/115/106
f  110/106/97 119/115/106 118/114/105
f  111/107/98 105/101/92 113/109/100
f  111/107/98 113/109/100 119/115/106
f  113/109/100 112/108/99 120/116/107
f  113/109/100 120/116/107 121/117/108
f  115/111/102 114/110/101 122/118/109
f  115/111/102 122/118/109 123/119/110
f  116/112/103 115/111/102 123/119/110
f  116/112/103 123/119/110 124/120/111
f  112/108/99 117/113/104 125/121/112
f  112/108/99 125/121/112 120/116/107
f  117/113/104 116/112/103 124/120/111
f  117/113/104 124/120/111 125/121/112
f  114/110/101 118/114/105 126/122/113
f  114/110/101 126/122/113 122/118/109
f  118/114/105 119/115/106 127/123/114
f  118/114/105 127/123/114 126/122/113
f  119/115/106 113/109/100 121/117/108
f  119/115/106 121/117/108 127/123/114
f  121/117/108 120/116/107 60/60/57
f  121/117/108 60/60/57 59/59/56
f  128/119/115 129/118/116 130/58/117
f  128/119/115 130/58/117 131/61/116
f  132/120/118 133/119/119 134/61/120
f  132/120/118 134/61/120 135/62/121
f  136/116/122 137/121/123 138/63/123
f  136/116/122 138/63/123 139/60/124
f  140/121/125 141/120/126 142/62/127
f  140/121/125 142/62/127 143/63/127
f  122/118/109 126/122/113 78/78/75
f  122/118/109 78/78/75 58/58/55
f  126/122/113 127/123/114 79/79/76
f  126/122/113 79/79/76 78/78/75
f  127/123/114 121/117/108 59/59/56
f  127/123/114 59/59/56 79/79/76
f  10/10/10 12/12/12 48/48/45
f  8/8/8 10/10/10 48/48/45
f  8/8/8 48/48/45 51/51/48
f  6/6/6 8/8/8 51/51/48
f  6/6/6 51/51/48 53/53/50
f  56/56/53 1/1/1 55/55/52
f  56/56/53 55/55/52 54/54/51
f  1/1/1 6/6/6 53/53/50
f  1/1/1 53/53/50 55/55/52
f  72/72/69 144/124/128 71/71/68
f  144/124/128 145/125/129 73/73/70
f  144/124/128 73/73/70 71/71/68
f  145/125/129 146/126/130 74/74/71
f  145/125/129 74/74/71 73/73/70
f  76/76/73 56/56/53 54/54/51
f  76/76/73 54/54/51 75/75/72
f  147/127/131 148/128/132 149/129/133
f  147/127/131 149/129/133 150/130/134
f  146/126/130 76/76/73 151/131/135
f  146/126/130 151/131/135 152/132/136
f  76/76/73 75/75/72 153/133/137
f  76/76/73 153/133/137 151/131/135
f  75/75/72 74/74/71 154/134/138
f  75/75/72 154/134/138 153/133/137
f  74/74/71 146/126/130 152/132/136
f  74/74/71 152/132/136 154/134/138
f  155/135/139 156/136/140 148/128/132
f  155/135/139 148/128/132 147/127/131
f  157/137/141 158/138/142 159/139/143
f  157/137/141 159/139/143 160/140/144
f  161/141/145 162/142/146 150/130/134
f  161/141/145 150/130/134 149/129/133
f  162/142/146 155/135/139 147/127/131
f  162/142/146 147/127/131 150/130/134
f  163/143/147 161/141/145 164/144/148
f  161/141/145 149/129/133 165/145/149
f  161/141/145 165/145/149 164/144/148
f  166/139/150 148/128/132 167/140/151
f  148/128/132 156/136/140 168/137/152
f  148/128/132 168/137/152 167/140/151
f  169/146/128 170/147/69 171/148/153
f  169/146/128 171/148/153 172/149/154
f  173/150/155 174/151/156 175/152/157
f  173/150/155 175/152/157 176/153/158
f  177/154/159 178/155/160 179/156/161
f  177/154/159 179/156/161 180/157/162
f  181/158/163 182/159/164 76/76/73
f  181/158/163 76/76/73 146/126/130
f  183/160/165 181/158/163 146/126/130
f  183/160/165 146/126/130 145/125/129
f  184/161/166 183/160/165 145/125/129
f  184/161/166 145/125/129 144/124/128
f  185/162/167 186/163/166 169/146/128
f  185/162/167 169/146/128 172/149/154
f  187/164/168 188/165/169 173/150/155
f  187/164/168 173/150/155 176/153/158
f  189/166/170 190/167/171 177/154/159
f  189/166/170 177/154/159 180/157/162
f  179/156/161 189/166/170 180/157/162
f  178/155/160 191/168/172 179/156/161
f  174/151/156 192/169/173 193/170/174
f  174/151/156 193/170/174 175/152/157
f  170/147/69 194/171/175 195/172/176
f  170/147/69 195/172/176 171/148/153
f  196/173/177 197/72/175 72/72/69
f  196/173/177 72/72/69 49/49/46
f  198/174/178 196/173/177 49/49/46
f  198/174/178 49/49/46 12/12/12
f  199/175/179 198/174/178 12/12/12
f  199/175/179 12/12/12 11/11/11
f  9/9/9 200/176/180 199/175/179
f  9/9/9 199/175/179 11/11/11
f  7/7/7 201/177/181 200/176/180
f  7/7/7 200/176/180 9/9/9
f  5/5/5 202/178/182 201/177/181
f  5/5/5 201/177/181 7/7/7
f  4/4/4 203/179/183 202/178/182
f  4/4/4 202/178/182 5/5/5
f  204/180/184 203/179/183 4/4/4
f  204/180/184 4/4/4 3/3/3
f  205/181/185 204/180/184 3/3/3
f  205/181/185 3/3/3 14/14/14
f  206/182/186 205/181/185 14/14/14
f  206/182/186 14/14/14 16/16/16
f  207/183/187 208/184/186 17/17/16
f  207/183/187 17/17/16 20/20/18
f  209/185/188 207/183/187 20/20/18
f  209/185/188 20/20/18 85/85/23
f  210/186/189 211/187/188 25/25/23
f  210/186/189 25/25/23 28/28/26
f  212/188/190 210/186/189 28/28/26
f  212/188/190 28/28/26 30/30/28
f  213/189/191 212/188/190 30/30/28
f  213/189/191 30/30/28 32/32/30
f  214/190/192 213/189/191 32/32/30
f  214/190/192 32/32/30 34/34/32
f  215/191/193 214/190/192 34/34/32
f  215/191/193 34/34/32 36/36/34
f  216/192/194 215/191/193 36/36/34
f  216/192/194 36/36/34 35/35/33
f  217/193/195 216/192/194 35/35/33
f  217/193/195 35/35/33 46/46/43
f  218/194/196 217/193/195 46/46/43
f  218/194/196 46/46/43 70/70/67
f  69/69/66 219/195/197 218/194/196
f  69/69/66 218/194/196 70/70/67
f  68/68/65 220/196/198 219/195/197
f  68/68/65 219/195/197 69/69/66
f  67/67/64 221/197/199 220/196/198
f  67/67/64 220/196/198 68/68/65
f  66/66/63 222/198/200 221/197/199
f  66/66/63 221/197/199 67/67/64
f  65/65/62 223/199/201 222/198/200
f  65/65/62 222/198/200 66/66/63
f  64/64/61 224/200/202 223/199/201
f  64/64/61 223/199/201 65/65/62
f  103/99/90 225/201/203 224/200/202
f  103/99/90 224/200/202 64/64/61
f  102/98/89 226/202/204 225/201/203
f  102/98/89 225/201/203 103/99/90
f  77/77/74 227/203/205 226/202/204
f  77/77/74 226/202/204 102/98/89
f  182/159/164 227/203/205 77/77/74
f  182/159/164 77/77/74 76/76/73
f  151/131/135 153/133/137 161/141/145
f  151/131/135 161/141/145 156/136/140
f  152/132/136 151/131/135 156/136/140
f  152/132/136 156/136/140 155/135/139
f  154/134/138 152/132/136 155/135/139
f  154/134/138 155/135/139 162/142/146
f  153/133/137 154/134/138 162/142/146
f  153/133/137 162/142/146 161/141/145
f  228/1/206 229/4/207 230/3/208
f  228/1/206 230/3/208 231/2/209
f  228/1/206 232/6/210 233/5/211
f  228/1/206 233/5/211 229/4/207
f  232/6/210 234/8/212 235/7/213
f  232/6/210 235/7/213 233/5/211
f  234/8/212 236/10/214 237/9/215
f  234/8/212 237/9/215 235/7/213
f  236/10/214 238/12/216 239/11/217
f  236/10/214 239/11/217 237/9/215
f  230/3/208 240/14/218 241/13/219
f  230/3/208 241/13/219 231/2/209
f  240/14/218 242/16/220 243/15/221
f  240/14/218 243/15/221 241/13/219
f  244/204/220 245/205/222 246/206/223
f  244/204/220 246/206/223 247/207/221
f  248/21/224 249/24/225 250/23/226
f  248/21/224 250/23/226 251/22/227
f  252/25/228 253/28/229 254/27/230
f  252/25/228 254/27/230 255/26/231
f  253/28/229 256/30/232 257/29/233
f  253/28/229 257/29/233 254/27/230
f  256/30/232 258/32/234 259/31/235
f  256/30/232 259/31/235 257/29/233
f  258/32/234 260/34/236 261/33/237
f  258/32/234 261/33/237 259/31/235
f  260/34/236 262/36/238 263/35/239
f  260/34/236 263/35/239 261/33/237
f  241/13/219 243/15/221 264/38/240
f  241/13/219 264/38/240 265/37/241
f  266/39/223 267/40/242 264/38/240
f  266/39/223 264/38/240 243/15/221
f  255/26/231 268/41/243 267/40/242
f  255/26/231 267/40/242 266/39/223
f  254/27/230 269/42/244 268/41/243
f  254/27/230 268/41/243 255/26/231
f  257/29/233 270/43/245 269/42/244
f  257/29/233 269/42/244 254/27/230
f  259/31/235 271/44/246 270/43/245
f  259/31/235 270/43/245 257/29/233
f  261/33/237 272/45/247 271/44/246
f  261/33/237 271/44/246 259/31/235
f  263/35/239 273/46/248 272/45/247
f  263/35/239 272/45/247 261/33/237
f  274/47/249 275/49/250 238/12/216
f  274/47/249 238/12/216 276/48/251
f  277/50/252 274/47/249 276/48/251
f  277/50/252 276/48/251 278/51/253
f  279/52/254 277/50/252 278/51/253
f  279/52/254 278/51/253 280/53/255
f  281/54/256 279/52/254 280/53/255
f  281/54/256 280/53/255 282/208/257
f  283/56/258 228/1/206 231/2/209
f  283/56/258 231/2/209 284/57/259
f  241/13/219 265/37/241 284/57/259
f  241/13/219 284/57/259 231/2/209
f  285/58/260 286/61/261 287/60/262
f  285/58/260 287/60/262 288/59/263
f  289/62/264 290/63/265 287/60/262
f  289/62/264 287/60/262 286/61/261
f  268/41/243 291/65/266 292/64/267
f  268/41/243 292/64/267 267/40/242
f  269/42/244 293/66/268 291/65/266
f  269/42/244 291/65/266 268/41/243
f  270/43/245 294/67/269 293/66/268
f  270/43/245 293/66/268 269/42/244
f  271/44/246 295/68/270 294/67/269
f  271/44/246 294/67/269 270/43/245
f  272/45/247 296/69/271 295/68/270
f  272/45/247 295/68/270 271/44/246
f  273/46/248 297/70/272 296/69/271
f  273/46/248 296/69/271 272/45/247
f  298/71/273 299/72/274 275/49/250
f  298/71/273 275/49/250 274/47/249
f  300/73/275 298/71/273 274/47/249
f  300/73/275 274/47/249 277/50/252
f  301/74/276 300/73/275 277/50/252
f  301/74/276 277/50/252 279/52/254
f  302/75/277 301/74/276 279/52/254
f  302/75/277 279/52/254 281/54/256
f  303/76/278 283/56/258 284/57/259
f  303/76/278 284/57/259 304/77/279
f  285/58/260 288/59/263 305/79/280
f  285/58/260 305/79/280 306/78/281
f  245/205/222 307/209/282 308/210/283
f  245/205/222 308/210/283 246/206/223
f  266/39/223 309/83/283 310/82/284
f  266/39/223 310/82/284 255/26/231
f  311/211/231 312/212/284 313/213/285
f  311/211/231 313/213/285 314/214/228
f  314/214/228 313/213/285 307/209/282
f  314/214/228 307/209/282 245/205/222
f  307/209/282 315/215/286 316/88/287
f  307/209/282 316/88/287 308/210/283
f  309/83/283 317/91/288 318/90/289
f  309/83/283 318/90/289 310/82/284
f  312/212/284 319/216/290 320/217/291
f  312/212/284 320/217/291 313/213/285
f  313/213/285 320/217/291 315/215/286
f  313/213/285 315/215/286 307/209/282
f  321/94/286 248/21/224 251/22/227
f  321/94/286 251/22/227 322/91/287
f  317/91/288 323/22/292 324/23/293
f  317/91/288 324/23/293 318/90/289
f  325/90/290 250/23/226 249/24/225
f  325/90/290 249/24/225 326/95/291
f  320/217/291 327/218/225 328/219/224
f  320/217/291 328/219/224 315/215/286
f  329/98/294 330/101/295 331/100/296
f  329/98/294 331/100/296 332/99/297
f  264/38/240 333/103/298 334/102/299
f  264/38/240 334/102/299 265/37/241
f  267/40/242 335/104/300 333/103/298
f  267/40/242 333/103/298 264/38/240
f  332/99/297 331/100/296 336/105/301
f  332/99/297 336/105/301 292/64/267
f  292/64/267 336/105/301 335/104/300
f  292/64/267 335/104/300 267/40/242
f  265/37/241 334/102/299 337/106/302
f  265/37/241 337/106/302 284/57/259
f  284/57/259 337/106/302 338/107/303
f  284/57/259 338/107/303 304/77/279
f  304/77/279 338/107/303 330/101/295
f  304/77/279 330/101/295 329/98/294
f  330/101/295 339/109/304 340/108/305
f  330/101/295 340/108/305 331/100/296
f  333/103/298 341/111/306 342/110/307
f  333/103/298 342/110/307 334/102/299
f  335/104/300 343/112/308 341/111/306
f  335/104/300 341/111/306 333/103/298
f  331/100/296 340/108/305 344/113/309
f  331/100/296 344/113/309 336/105/301
f  336/105/301 344/113/309 343/112/308
f  336/105/301 343/112/308 335/104/300
f  334/102/299 342/110/307 345/114/310
f  334/102/299 345/114/310 337/106/302
f  337/106/302 345/114/310 346/115/311
f  337/106/302 346/115/311 338/107/303
f  338/107/303 346/115/311 339/109/304
f  338/107/303 339/109/304 330/101/295
f  339/109/304 347/117/312 348/116/313
f  339/109/304 348/116/313 340/108/305
f  341/111/306 349/119/314 350/118/315
f  341/111/306 350/118/315 342/110/307
f  343/112/308 351/120/316 349/119/314
f  343/112/308 349/119/314 341/111/306
f  340/108/305 348/116/313 352/121/317
f  340/108/305 352/121/317 344/113/309
f  344/113/309 352/121/317 351/120/316
f  344/113/309 351/120/316 343/112/308
f  342/110/307 350/118/315 353/122/318
f  342/110/307 353/122/318 345/114/310
f  345/114/310 353/122/318 354/123/319
f  345/114/310 354/123/319 346/115/311
f  346/115/311 354/123/319 347/117/312
f  346/115/311 347/117/312 339/109/304
f  347/117/312 288/59/263 287/60/262
f  347/117/312 287/60/262 348/116/313
f  355/119/320 356/61/320 357/58/321
f  355/119/320 357/58/321 358/118/322
f  359/120/323 360/62/324 361/61/325
f  359/120/323 361/61/325 362/119/326
f  363/116/327 364/60/328 365/63/327
f  363/116/327 365/63/327 366/121/329
f  367/121/330 368/63/330 369/62/330
f  367/121/330 369/62/330 370/120/331
f  350/118/315 285/58/260 306/78/281
f  350/118/315 306/78/281 353/122/318
f  353/122/318 306/78/281 305/79/280
f  353/122/318 305/79/280 354/123/319
f  354/123/319 305/79/280 288/59/263
f  354/123/319 288/59/263 347/117/312
f  236/10/214 276/48/251 238/12/216
f  234/8/212 278/51/253 276/48/251
f  234/8/212 276/48/251 236/10/214
f  232/6/210 280/53/255 278/51/253
f  232/6/210 278/51/253 234/8/212
f  283/56/258 281/54/256 282/208/257
f  283/56/258 282/208/257 228/1/206
f  228/1/206 282/208/257 280/53/255
f  228/1/206 280/53/255 232/6/210
f  299/72/274 298/71/273 371/124/332
f  371/124/332 298/71/273 300/73/275
f  371/124/332 300/73/275 372/125/333
f  372/125/333 300/73/275 301/74/276
f  372/125/333 301/74/276 373/126/334
f  303/76/278 302/75/277 281/54/256
f  303/76/278 281/54/256 283/56/258
f  374/127/335 375/130/336 376/129/337
f  374/127/335 376/129/337 377/128/338
f  373/126/334 378/132/339 379/131/340
f  373/126/334 379/131/340 303/76/278
f  303/76/278 379/131/340 380/133/341
f  303/76/278 380/133/341 302/75/277
f  302/75/277 380/133/341 381/134/342
f  302/75/277 381/134/342 301/74/276
f  301/74/276 381/134/342 378/132/339
f  301/74/276 378/132/339 373/126/334
f  382/135/343 374/127/335 377/128/338
f  382/135/343 377/128/338 383/136/344
f  384/220/345 385/221/346 386/145/347
f  384/220/345 386/145/347 387/144/348
f  388/141/349 376/129/337 375/130/336
f  388/141/349 375/130/336 389/142/350
f  389/142/350 375/130/336 374/127/335
f  389/142/350 374/127/335 382/135/343
f  383/136/344 390/137/351 391/222/352
f  388/141/349 392/144/353 393/145/354
f  388/141/349 393/145/354 376/129/337
f  376/129/337 393/145/354 394/221/355
f  377/128/338 395/140/356 390/137/351
f  377/128/338 390/137/351 383/136/344
f  396/146/332 397/149/357 398/148/358
f  396/146/332 398/148/358 399/147/274
f  400/150/359 401/153/360 402/152/361
f  400/150/359 402/152/361 403/151/362
f  404/154/363 405/157/364 179/156/161
f  404/154/363 179/156/161 406/155/365
f  181/158/163 373/126/334 303/76/278
f  181/158/163 303/76/278 182/159/164
f  183/160/165 372/125/333 373/126/334
f  183/160/165 373/126/334 181/158/163
f  184/161/166 371/124/332 372/125/333
f  184/161/166 372/125/333 183/160/165
f  185/162/167 397/149/357 396/146/332
f  185/162/167 396/146/332 186/163/166
f  187/164/168 401/153/360 400/150/359
f  187/164/168 400/150/359 188/165/169
f  189/166/170 405/157/364 404/154/363
f  189/166/170 404/154/363 190/167/171
f  179/156/161 405/157/364 189/166/170
f  406/155/365 179/156/161 191/168/172
f  403/151/362 402/152/361 193/170/174
f  403/151/362 193/170/174 192/169/173
f  399/147/274 398/148/358 195/172/176
f  399/147/274 195/172/176 194/171/175
f  196/173/177 275/49/250 299/72/274
f  196/173/177 299/72/274 197/72/175
f  198/174/178 238/12/216 275/49/250
f  198/174/178 275/49/250 196/173/177
f  199/175/179 239/11/217 238/12/216
f  199/175/179 238/12/216 198/174/178
f  237/9/215 239/11/217 199/175/179
f  237/9/215 199/175/179 200/176/180
f  235/7/213 237/9/215 200/176/180
f  235/7/213 200/176/180 201/177/181
f  233/5/211 235/7/213 201/177/181
f  233/5/211 201/177/181 202/178/182
f  229/4/207 233/5/211 202/178/182
f  229/4/207 202/178/182 203/179/183
f  204/180/184 230/3/208 229/4/207
f  204/180/184 229/4/207 203/179/183
f  205/181/185 240/14/218 230/3/208
f  205/181/185 230/3/208 204/180/184
f  206/182/186 242/16/220 240/14/218
f  206/182/186 240/14/218 205/181/185
f  407/223/187 245/205/222 244/204/220
f  407/223/187 244/204/220 408/224/186
f  409/225/188 314/214/228 245/205/222
f  409/225/188 245/205/222 407/223/187
f  210/186/189 253/28/229 252/25/228
f  210/186/189 252/25/228 211/187/188
f  212/188/190 256/30/232 253/28/229
f  212/188/190 253/28/229 210/186/189
f  213/189/191 258/32/234 256/30/232
f  213/189/191 256/30/232 212/188/190
f  214/190/192 260/34/236 258/32/234
f  214/190/192 258/32/234 213/189/191
f  215/191/193 262/36/238 260/34/236
f  215/191/193 260/34/236 214/190/192
f  216/192/194 263/35/239 262/36/238
f  216/192/194 262/36/238 215/191/193
f  217/193/195 273/46/248 263/35/239
f  217/193/195 263/35/239 216/192/194
f  218/194/196 297/70/272 273/46/248
f  218/194/196 273/46/248 217/193/195
f  296/69/271 297/70/272 218/194/196
f  296/69/271 218/194/196 219/195/197
f  295/68/270 296/69/271 219/195/197
f  295/68/270 219/195/197 220/196/198
f  294/67/269 295/68/270 220/196/198
f  294/67/269 220/196/198 221/197/199
f  293/66/268 294/67/269 221/197/199
f  293/66/268 221/197/199 222/198/200
f  291/65/266 293/66/268 222/198/200
f  291/65/266 222/198/200 223/199/201
f  292/64/267 291/65/266 223/199/201
f  292/64/267 223/199/201 224/200/202
f  332/99/297 292/64/267 224/200/202
f  332/99/297 224/200/202 225/201/203
f  329/98/294 332/99/297 225/201/203
f  329/98/294 225/201/203 226/202/204
f  304/77/279 329/98/294 226/202/204
f  304/77/279 226/202/204 227/203/205
f  182/159/164 303/76/278 304/77/279
f  182/159/164 304/77/279 227/203/205
f  379/131/340 383/136/344 388/141/349
f  379/131/340 388/141/349 380/133/341
f  378/132/339 382/135/343 383/136/344
f  378/132/339 383/136/344 379/131/340
f  381/134/342 389/142/350 382/135/343
f  381/134/342 382/135/343 378/132/339
f  380/133/341 388/141/349 389/142/350
f  380/133/341 389/142/350 381/134/342
f  410/119/366 411/118/367 412/118/368
f  410/119/366 412/118/368 413/119/369
f  122/118/109 58/58/55 414/58/370
f  122/118/109 414/58/370 415/118/371
f  58/58/55 61/61/58 416/61/372
f  58/58/55 416/61/372 417/58/373
f  418/61/374 419/119/375 420/119/374
f  418/61/374 420/119/374 421/61/376
f  422/120/377 423/119/378 424/119/379
f  422/120/377 424/119/379 425/120/380
f  426/119/381 427/61/382 428/61/383
f  426/119/381 428/61/383 429/119/384
f  61/61/58 62/62/59 430/62/385
f  61/61/58 430/62/385 431/61/386
f  432/62/387 433/120/387 434/120/388
f  432/62/387 434/120/388 435/62/387
f  436/116/389 437/121/390 438/121/391
f  436/116/389 438/121/391 439/116/392
f  440/121/393 441/63/393 442/63/393
f  440/121/393 442/63/393 443/121/393
f  63/63/60 60/60/57 444/60/394
f  63/63/60 444/60/394 445/63/395
f  60/60/57 120/116/107 446/116/396
f  60/60/57 446/116/396 447/60/397
f  448/121/398 449/120/398 450/120/399
f  448/121/398 450/120/399 451/121/400
f  452/120/401 453/62/402 454/62/402
f  452/120/401 454/62/402 455/120/403
f  62/62/59 63/63/60 456/63/404
f  62/62/59 456/63/404 457/62/405
f  458/63/406 459/121/407 460/121/406
f  458/63/406 460/121/406 461/63/408
f  462/119/409 463/61/410 464/61/411
f  462/119/409 464/61/411 465/119/412
f  286/61/261 285/58/260 466/58/413
f  286/61/261 466/58/413 467/61/414
f  285/58/260 350/118/315 468/118/415
f  285/58/260 468/118/415 469/58/416
f  470/118/417 471/119/418 472/119/419
f  470/118/417 472/119/419 473/118/420
f  474/120/421 475/62/422 476/62/421
f  474/120/421 476/62/421 477/120/422
f  289/62/264 286/61/261 478/61/423
f  289/62/264 478/61/423 479/62/424
f  480/61/425 481/119/425 482/119/426
f  480/61/425 482/119/426 483/61/427
f  484/119/428 485/120/429 486/120/430
f  484/119/428 486/120/430 487/119/431
f  348/116/313 287/60/262 488/60/432
f  348/116/313 488/60/432 489/116/433
f  287/60/262 290/63/265 490/63/434
f  287/60/262 490/63/434 491/60/435
f  492/63/436 493/121/437 494/121/438
f  492/63/436 494/121/438 495/63/436
f  496/121/439 497/116/440 498/116/440
f  496/121/439 498/116/440 499/121/441
f  500/121/442 501/63/442 502/63/443
f  500/121/442 502/63/443 503/121/442
f  290/63/265 289/62/264 504/62/444
f  290/63/265 504/62/444 505/63/445
f  506/62/446 507/120/447 508/120/448
f  506/62/446 508/120/448 509/62/449
f  510/120/450 511/121/451 512/121/452
f  510/120/450 512/121/452 513/120/453
f  514/226/454 515/143/455 516/144/456
f  514/226/454 516/144/456 517/145/457
f  518/139/458 519/138/459 520/143/460
f  518/139/458 520/143/460 521/226/461
f  522/137/462 523/140/463 524/227/464
f  522/137/462 524/227/464 525/222/462
f  526/222/465 527/227/466 528/221/467
f  526/222/465 528/221/467 529/220/467
f  388/141/349 530/220/468 392/144/353
f  383/136/344 391/222/352 530/220/468
f  383/136/344 530/220/468 388/141/349
f  156/136/140 531/138/469 168/137/152
f  156/136/140 161/141/145 163/143/147
f  156/136/140 163/143/147 531/138/469
f  149/129/133 532/226/470 165/145/149
f  149/129/133 148/128/132 166/139/150
f  149/129/133 166/139/150 532/226/470
f  377/128/338 533/227/471 395/140/356
f  376/129/337 394/221/355 533/227/471
f  376/129/337 533/227/471 377/128/338
f  168/137/152 531/138/469 534/138/472
f  168/137/152 534/138/472 535/137/473
f  536/138/474 537/139/475 538/139/476
f  536/138/474 538/139/476 539/138/477
f  166/139/150 167/140/151 540/140/478
f  166/139/150 540/140/478 541/139/479
f  167/140/151 168/137/152 542/137/480
f  167/140/151 542/137/480 543/140/481
f  544/220/482 545/221/483 546/221/483
f  544/220/482 546/221/483 547/220/482
f  394/221/355 393/145/354 548/145/484
f  394/221/355 548/145/484 549/221/485
f  393/145/354 392/144/353 550/144/486
f  393/145/354 550/144/486 551/145/486
f  392/144/353 530/220/468 552/220/487
f  392/144/353 552/220/487 553/144/488
f  554/226/489 555/143/490 556/143/491
f  554/226/489 556/143/491 557/226/491
f  163/143/147 164/144/148 558/144/492
f  163/143/147 558/144/492 559/143/493
f  164/144/148 165/145/149 560/145/494
f  164/144/148 560/145/494 561/144/495
f  165/145/149 532/226/470 562/226/496
f  165/145/149 562/226/496 563/145/497
f  564/139/498 565/138/499 566/138/500
f  564/139/498 566/138/500 567/139/500
f  531/138/469 163/143/147 568/143/501
f  531/138/469 568/143/501 569/138/502
f  570/143/503 571/226/504 572/226/505
f  570/143/503 572/226/505 573/143/504
f  532/226/470 166/139/150 574/139/506
f  532/226/470 574/139/506 575/226/507
f  390/137/351 395/140/356 576/140/508
f  390/137/351 576/140/508 577/137/509
f  395/140/356 533/227/471 578/227/510
f  395/140/356 578/227/510 579/140/511
f  580/227/512 581/222/513 582/222/514
f  580/227/512 582/222/514 583/227/515
f  391/222/352 390/137/351 584/137/516
f  391/222/352 584/137/516 585/222/517
f  586/222/518 587/227/519 588/227/520
f  586/222/518 588/227/520 589/222/521
f  533/227/471 394/221/355 590/221/522
f  533/227/471 590/221/522 591/227/523
f  592/221/524 593/220/524 594/220/525
f  592/221/524 594/220/525 595/221/526
f  530/220/468 391/222/352 596/222/527
f  530/220/468 596/222/527 597/220/528
f  176/153/158 175/152/157 178/155/160
f  176/153/158 178/155/160 177/154/159
f  190/167/171 187/164/168 176/153/158
f  190/167/171 176/153/158 177/154/159
f  190/167/171 404/154/363 401/153/360
f  190/167/171 401/153/360 187/164/168
f  402/152/361 401/153/360 404/154/363
f  402/152/361 404/154/363 406/155/365
f  193/170/174 402/152/361 406/155/365
f  193/170/174 406/155/365 191/168/172
f  175/152/157 193/170/174 191/168/172
f  175/152/157 191/168/172 178/155/160
f  172/149/154 171/148/153 174/151/156
f  172/149/154 174/151/156 173/150/155
f  188/165/169 185/162/167 172/149/154
f  188/165/169 172/149/154 173/150/155
f  188/165/169 400/150/359 397/149/357
f  188/165/169 397/149/357 185/162/167
f  398/148/358 397/149/357 400/150/359
f  398/148/358 400/150/359 403/151/362
f  195/172/176 398/148/358 403/151/362
f  195/172/176 403/151/362 192/169/173
f  171/148/153 195/172/176 192/169/173
f  171/148/153 192/169/173 174/151/156

